<svg width="982" height="861" viewBox="0 0 982 861" fill="none" xmlns="http://www.w3.org/2000/svg">
<path fill-rule="evenodd" clip-rule="evenodd" d="M967.367 77.1662L967.344 154.332L971.17 193.138C979.014 272.716 981.041 318.014 977.739 339.888C974.32 362.532 973.711 377.796 973.796 438.91C973.842 472.275 974.369 505.595 974.965 512.954C981.637 595.253 983.06 624.913 981.322 645.475C980.638 653.547 979.584 666.172 978.978 673.531C978.261 682.237 978.107 703.587 978.539 734.64C979.269 787.12 979.068 790.338 972.831 826.08C971.119 835.893 969.472 847.233 969.171 851.281C968.871 855.329 968.221 858.641 967.728 858.641C966.124 858.641 966.77 851.928 970.362 831.242C977.124 792.3 977.58 787.478 977.047 760.511C976.277 721.525 976.757 676.246 978.063 664.61C981.269 636.065 980.531 602.449 975.36 541.501C970.568 485.012 970.806 371.432 975.777 342.564C979.781 319.31 977.54 272.224 967.665 172.174C965.269 147.899 964.52 33.8425 966.596 9.36699C967.046 4.04743 967.38 33.342 967.367 77.1662ZM959.082 6.02164C958.804 9.08866 957.442 31.0672 956.053 54.8638C947.379 203.479 946.945 226.648 952.169 262.276C954.461 277.914 954.453 306.277 952.15 318.841C945.293 356.276 948.15 442.378 959.124 529.012C964.968 575.148 965.111 578.209 965.537 666.395C965.754 711.535 965.967 754.288 966.011 761.403C966.074 771.772 965.523 777.17 963.236 788.612C960.629 801.646 960.342 805.305 959.934 830.763C959.643 848.907 959.122 858.641 958.439 858.641C955.985 858.641 958.143 806.829 961.244 791.288C963.686 779.053 964.086 774.656 964.047 760.511C963.732 643.104 962.99 575.682 961.903 565.588C961.216 559.209 959.293 543.352 957.629 530.35C946.416 442.697 943.323 357.936 950.017 321.727C952.943 305.89 953.051 284.351 950.309 263.168C947.244 239.496 947.011 184.038 949.77 135.152C956.401 17.6867 957.548 0.446047 958.731 0.446047C959.201 0.446047 959.358 2.95551 959.082 6.02164ZM947.922 11.3742C942.99 93.843 934.282 153.662 922.422 186.516C915.016 207.032 914.71 228.494 921.252 268.52C924.922 290.971 925.071 292.889 925.882 328.291C927.046 379.043 934.538 462.257 941.746 504.479C946.168 530.377 949.412 587.91 951.031 669.071C951.626 698.927 948.904 857.542 947.779 858.567C946.59 859.651 946.616 852.977 948.05 792.169C951.092 663.138 948.114 559.748 939.7 502.249C930.715 440.845 925.233 379.042 923.833 323.384C923.121 295.042 922.525 285.702 920.788 275.657C913.09 231.133 912.715 210.099 919.281 191.01C932.307 153.134 941.356 95.0072 945.507 22.5254C946.202 10.3813 947.178 0.446047 947.673 0.446047C948.179 0.446047 948.288 5.24462 947.922 11.3742ZM936.666 3.7914C936.399 5.63179 935.915 11.3519 935.589 16.5037C931.262 84.914 910.903 158.476 886.955 192.225C865.147 222.958 863.999 236.167 880.253 269.384C894.196 297.877 894.695 300.398 902.314 380.924C908.199 443.127 910.038 456.92 917.13 492.074C928.225 547.074 935.805 598.173 940.405 648.999C942.016 666.792 941.981 730.109 940.339 772.108C937.878 835.033 936.845 858.211 936.482 858.567C935.236 859.793 935.253 854.619 936.604 822.449C940.346 733.367 941.097 684.504 939.147 657.028C935.82 610.144 927.735 553.803 915.592 492.882C908.343 456.517 905.782 437.146 900.255 376.91C893.546 303.781 892.398 298.001 879.251 271.183C862.12 236.238 863.081 223.782 885.377 191.751C910.496 155.664 935.08 62.1103 935.08 2.60581C935.08 1.41843 935.546 0.446047 936.116 0.446047C936.718 0.446047 936.948 1.8511 936.666 3.7914ZM922.326 6.91373C919.009 38.9176 913.767 57.1931 897.7 92.7778C887.573 115.204 882.834 127.745 879.308 141.442C873.615 163.563 868.023 174.951 852.921 195.189C843.419 207.924 840.098 213.885 837.414 223.032C832.475 239.859 833.945 246.133 850.042 276.944C862.704 301.177 868.243 322.172 870.534 354.608C874.238 407.066 882.479 447.011 913.411 562.466C923.851 601.428 927.187 615.591 929.386 630.265C937.177 682.266 936.99 760.289 928.958 810.022C926.103 827.692 922.789 852.844 922.789 856.832C922.789 857.826 922.337 858.641 921.784 858.641C921.212 858.641 920.979 857.008 921.243 854.85C921.498 852.765 922.219 846.442 922.845 840.799C923.471 835.157 925.3 822.511 926.908 812.698C932.176 780.57 932.519 775.062 932.517 722.597C932.515 644.691 931.262 635.562 909.333 553.545C881.01 447.621 873.04 408.678 868.99 356.42C866.053 318.534 861.418 301.823 845.47 271.643C827.817 238.237 829.127 224.408 852.97 192.443C867.089 173.514 870.9 165.657 877.293 142.289C881.673 126.276 886.207 114.185 895.276 94.3212C911.518 58.7462 917.972 36.6954 920.337 8.69792C920.721 4.15895 921.476 0.446047 922.015 0.446047C922.612 0.446047 922.734 2.9796 922.326 6.91373ZM907.394 2.5621C907.576 17.6278 897.466 50.0108 886.82 68.4504C881.454 77.7469 876.701 90.3995 867.629 119.541C847.933 182.804 837.721 197.14 813.435 195.621C786.885 193.962 773.123 171.734 744.521 84.3029C737.825 63.8347 731.099 45.2015 728.474 39.8481C723.927 30.5774 720.686 19.7367 719.494 9.81304C719.14 6.86913 718.637 3.55767 718.373 2.45326C718.111 1.34885 718.309 0.446047 718.813 0.446047C719.318 0.446047 720.28 4.25351 720.953 8.90667C722.727 21.1819 725.452 30.25 730.177 39.6001C732.597 44.3915 739.248 62.8436 746.068 83.691C775.225 172.817 788.885 194.362 816.174 194.271C837.881 194.197 846.488 181.221 866.036 119.095C875.802 88.0569 879.51 78.3812 886.407 65.9338C895.669 49.2169 903.008 26.6665 904.959 8.92095C905.693 2.25343 907.338 -2.04379 907.394 2.5621ZM892.462 3.66116C891.614 5.42929 890.469 10.3465 889.918 14.5893C888.49 25.5665 885.769 32.764 876.71 49.5112C860.377 79.7095 844.166 120.795 837.23 149.573C832.508 169.168 821.616 172.566 805.756 159.391C782.29 139.897 739.132 44.8144 737.862 9.81304L737.507 0L738.448 7.13676C741.08 27.0902 743.861 37.8355 751.259 56.648C791.045 157.812 824.553 192.126 836.871 144.317C844.094 116.284 859.901 77.1162 876.172 46.9304C884.749 31.019 886.456 26.5148 887.989 15.7437C889.127 7.74784 891.575 0.446047 893.118 0.446047C893.605 0.446047 893.31 1.89302 892.462 3.66116ZM884.624 7.35978C883.744 18.2344 879.875 25.6085 867.421 40.1443C852.821 57.1868 838.701 87.2022 834.17 110.835C825.881 154.06 793.664 129.24 774.256 64.6769C771.528 55.5998 767.379 43.5565 765.038 37.914C756.823 18.1184 755.657 14.4439 755.267 7.13676C754.898 0.200721 754.915 0.138275 755.88 4.90652C758.175 16.2468 759.394 20.0918 764.755 32.9094C767.856 40.3227 772.441 53.2134 774.945 61.5545C785.423 96.4622 797.621 118.263 811.991 127.761C822.025 134.394 831.629 128.509 831.629 115.728C831.629 99.9075 849.288 59.8239 864.34 41.4824C879.535 22.9643 881.944 18.5297 882.629 7.80583C882.892 3.67811 883.557 0.446047 884.141 0.446047C884.807 0.446047 884.981 2.94659 884.624 7.35978ZM870.013 5.12954C868.504 14.799 865.817 20.172 859.192 26.7628C843.819 42.056 837.942 51.4542 832.207 69.9197C823.42 98.2125 816.819 100.937 802.491 82.1824C787.343 62.3547 775.929 35.8845 773.783 15.6117C773.446 12.4224 772.923 7.70591 772.622 5.12954C772.311 2.47913 772.49 0.446047 773.031 0.446047C773.558 0.446047 774.309 4.35967 774.699 9.14397C776.581 32.2216 784.897 54.0716 800.423 76.7317C815.905 99.3294 821.605 97.9832 830.597 69.6048C836.499 50.9814 842.652 41.0685 857.189 26.7628C863.829 20.23 866.131 15.9533 867.733 7.18314C869.111 -0.355946 871.155 -2.19901 870.013 5.12954ZM837.89 7.3348C835.133 11.2065 831.601 17.1612 830.042 20.5681C824.028 33.7123 820.419 36.5215 812.805 33.9888C802.464 30.5489 790.658 13.3056 790.658 1.64145C790.658 -1.72888 792.399 1.18292 793.543 6.46769C796.774 21.3826 807.623 33.4535 817.798 33.4535C820.932 33.4535 823.599 30.1617 828.48 20.2684C832.738 11.6374 839.744 1.21236 841.661 0.655689C842.344 0.457644 840.646 3.46311 837.89 7.3348ZM696.265 7.3464C696.948 11.1672 702.04 25.9974 707.677 40.5769C718.851 69.479 722.144 79.7408 727.66 102.854C734.703 132.356 739.185 143.093 759.038 178.011C790.273 232.952 790.94 246.247 765.157 300.055C747.198 337.536 740.641 360.474 735.917 402.335C735.032 410.185 734.071 418.415 733.782 420.623C733.495 422.83 732.84 446.516 732.329 473.256C730.552 566.224 726.841 580.003 691.479 624.912C652.425 674.513 648.784 681.445 648.855 706.093C648.938 735.32 653.381 749.525 671.35 778.026C685.102 799.835 689.114 809.41 692.778 829.152C694.999 841.124 696.041 858.641 694.53 858.641C693.738 858.641 693.352 856.227 693.352 851.258C693.352 828.917 686.822 806.175 674.849 786.827C638.413 727.947 636.74 693.288 668.347 652.121C671.737 647.705 681.218 635.436 689.415 624.857C725.346 578.484 728.592 566.99 730.22 480.393C731.987 386.385 738.067 352.949 762.744 301.528C788.51 247.838 788.236 231.513 760.774 184.383C739.4 147.699 733.378 133.628 726.042 103.228C720.349 79.6373 715.535 64.6786 705.27 38.683C697.291 18.4788 695.395 12.6053 694.008 3.7914C692.985 -2.71018 695.052 0.54507 696.265 7.3464ZM669.499 6.94852C669.791 15.6893 674.402 30.7782 682.097 48.1731C700.349 89.4352 703.9 97.8021 708.119 109.487C710.647 116.489 714.623 128.439 716.957 136.044C719.29 143.65 725.48 162.919 730.713 178.865C746.932 228.295 748.969 245.548 741.826 272.981C730.448 316.669 719.216 412.01 715.921 492.882C714.099 537.588 706.391 559.535 678.482 599.487C672.998 607.338 665.278 618.378 661.328 624.02C627.625 672.149 626.789 705.826 657.533 777.014C670.348 806.687 672.637 820.007 670.153 850.475C668.973 864.961 668.258 859.212 668.258 835.224C668.258 806.941 667.656 803.91 657.465 780.88C622.301 701.413 624.313 673.328 669.754 609.301C706.5 557.526 712.374 540.864 714.889 481.285C718.131 404.477 729.158 316.192 741.904 264.995C747.622 242.03 744.771 225.527 724.766 165.794C721.618 156.397 716.914 141.744 714.311 133.233C707.695 111.603 701.695 96.199 687.324 63.9534C671.132 27.6228 663.013 0.428205 668.363 0.449616C668.868 0.4514 669.379 3.37658 669.499 6.94852ZM641.947 6.26429C642.014 16.254 644.788 24.3238 656.173 47.6423C668.002 71.8645 697.496 147.536 704.538 171.728C714.412 205.641 714.193 222.504 702.569 323.384C696.46 376.4 693.947 406.053 692.324 444.263C689.34 514.503 682.285 539.979 650.088 596.775C617.004 655.137 614.618 678.729 634.339 752.482C642.661 783.606 646.224 804.756 646.233 823.086C646.238 836.427 643.114 858.641 641.231 858.641C640.813 858.641 641.16 855.53 642.004 851.727C643.099 846.794 643.551 838.553 643.585 822.957C643.644 796.172 642.599 789.737 631.355 747.575C613.147 679.295 616.058 653.494 648.392 596.577C679.901 541.114 687.45 514.781 690.288 450.427C692.286 405.138 694.692 377.255 702.559 308.219C708.855 252.969 709.186 248.652 709.202 221.686C709.219 193.385 708.853 190.786 701.522 167.268C693.674 142.09 666.127 72.1018 654.518 47.8439C642.26 22.231 635.981 0.446047 640.858 0.446047C641.465 0.446047 641.925 2.90198 641.947 6.26429ZM620.423 14.0505C623.259 31.3723 628.088 49.3266 637.76 78.5043C641.988 91.2613 648.64 111.333 652.543 123.109C683.678 217.08 685.817 250.408 670.263 399.212C660.948 488.341 652.304 533.459 639.577 559.383C609.637 620.371 600.193 688.91 610.268 772.108C617.191 829.286 619.718 858.641 617.714 858.641C617.238 858.641 616.544 853.121 616.172 846.375C615.308 830.693 612.306 801.825 608.123 768.985C598.003 689.538 608.371 620.678 640.607 553.232C654.529 524.104 667.883 431.46 677.083 300.19C681.495 237.224 675.693 198.143 650.759 122.909C631.045 63.4244 626.511 49.0616 623.278 35.864C620.199 23.297 619.151 17.8026 617.077 3.34535C616.849 1.75029 617.007 0.446047 617.428 0.446047C617.85 0.446047 619.198 6.56849 620.423 14.0505ZM591.267 1.04107C591.643 1.36758 591.953 2.67272 591.957 3.94038C591.984 12.1316 604.097 56.0084 618.577 100.361C655.136 212.345 659.465 251.898 646.702 357.284C637.293 434.966 617.856 534.337 604.746 571.769C598.808 588.725 591.784 623.9 588.432 653.459C584.758 685.874 584.298 695.653 584.285 741.777C584.273 787.612 584.906 801.881 588.365 833.662C590.989 857.766 591.087 859.137 590.103 857.749C588.341 855.264 584.389 814.096 582.737 781.029C579.794 722.101 583.691 660.302 593.595 608.854C596.039 596.161 598.725 586.201 607.313 558.005C619.168 519.082 637.058 423.77 645.155 356.392C657.688 252.116 653.52 213.705 617.628 102.742C603.772 59.9041 598.829 43.1158 594.599 24.5326C589.572 2.44612 589.105 -0.841245 591.267 1.04107ZM577.61 1.32922C577.61 1.81541 580.828 18.7759 584.762 39.0202C611.856 178.461 619.249 231.118 618.171 276.995C615.692 382.498 608.79 463.55 597.053 524.998C572.7 652.49 563.831 795.102 576.539 854.85C577.414 858.966 576.104 860.208 575.129 856.188C562.107 802.539 571.294 650.162 594.952 527.417C605.923 470.493 611.145 415.296 615.524 309.944C618.188 245.858 616.717 227.862 601.553 139.167C596.571 110.03 577.381 7.75409 575.901 2.45326C575.574 1.28551 575.814 0.446047 576.475 0.446047C577.099 0.446047 577.61 0.843921 577.61 1.32922ZM557.55 4.23745C557.852 6.32317 558.589 13.0469 559.189 19.18C559.788 25.3132 563.015 54.217 566.361 83.4108C586.401 258.243 588.014 292.909 580.675 391.114C568.908 548.541 566.34 577.504 558.673 639.186C551.099 700.126 550.242 771.453 556.203 844.672C557.159 856.424 557.038 859.814 555.703 858.567C553.697 856.694 551.491 797.599 551.491 745.791C551.491 684.303 551.601 682.316 557.663 633.387C564.199 580.649 568.271 535.657 576.07 429.99C578.605 395.644 581.234 361.521 581.912 354.162C586.462 304.8 582.147 236.894 564.82 85.195C556.983 16.5742 555.381 0.446047 556.404 0.446047C556.731 0.446047 557.247 2.15173 557.55 4.23745ZM536.934 20.7412C537.55 42.5449 538.701 50.8494 544.447 74.9359C553.184 111.556 553.357 113.696 555.169 206.966C557.301 316.662 555.141 387.708 547.414 462.105C535.517 576.652 533.113 622.607 536.18 676.836C539.145 729.231 538.557 858.641 535.355 858.641C534.664 858.641 534.526 855.955 534.954 850.835C536.396 833.597 536.877 726.297 535.616 703.417C531.325 625.558 533.19 583.723 546.887 450.508C553.41 387.074 555.788 284.997 553.123 182.879C551.245 110.949 551.204 110.522 542.933 75.8164C536.413 48.4541 531.565 0.446047 535.323 0.446047C535.977 0.446047 536.573 7.95124 536.934 20.7412ZM519.565 13.1584C520.296 27.3097 521.468 34.7498 527.47 63.3387C543.429 139.347 541.891 190.148 518.208 369.327C497.443 526.423 495.394 587.872 507.962 676.654C513.817 718.009 519.12 801.14 519.216 853.065C519.252 872.393 517.385 853.375 516.807 828.533C515.348 765.729 512.109 718.875 506.34 677.1C493.696 585.539 495.734 526.756 517.178 364.421C540.583 187.245 541.813 138.331 524.861 58.9371C519.139 32.1324 515.373 0.446047 517.912 0.446047C518.48 0.446047 519.19 5.90745 519.565 13.1584ZM494.883 3.12233C495.258 4.83961 495.819 8.85404 496.13 12.0433C496.874 19.6421 500.405 32.0779 507.276 51.2954C520.127 87.2388 522.903 147.57 515.587 231.945C512.345 269.349 511.08 277.234 497.709 343.456C484.871 407.037 474.408 462.415 469.644 491.992C459.88 552.611 463.699 622.837 482.841 734.64C490.315 778.296 493.351 806.504 494.073 839.015C494.579 861.798 493.61 854.424 491.611 820.281C490.304 797.939 487.362 771.523 483.862 750.698C482.501 742.602 479.789 726.52 477.836 714.96C463 627.143 459.159 554.745 466.53 501.803C469.996 476.914 481.07 417.587 496.717 340.068C507.635 285.983 509.275 276.42 511.969 251.125C516.132 212.027 516.666 200.631 516.666 150.764C516.666 85.8712 516.042 80.4767 504.971 49.6567C496.534 26.1723 493.004 11.5669 493.832 3.56838L494.201 0L494.883 3.12233ZM475.461 0.984872C475.871 1.3426 476.207 2.76549 476.207 4.14735C476.207 6.45163 479.182 17.0131 488.981 49.5112C517.983 145.684 509.74 266.833 467.981 358.176C453.644 389.534 451.678 397.873 449.582 436.234C447.736 469.985 446.025 483.502 440.291 509.659C426.775 571.305 432.839 658.999 455.724 732.861C466.64 768.092 475.155 820.772 475.179 853.214C475.186 863.329 474.08 858.372 473.078 843.8C469.924 797.911 464.332 765.654 453.616 731.518C430.562 658.078 425.027 570.901 439.315 506.264C444.454 483.015 445.672 472.532 448.564 426.65C450.276 399.492 454.133 383.633 464.079 362.873C490.669 307.365 502.021 255.078 503.544 181.095C504.745 122.793 500.391 91.9981 482.863 34.7917C474.51 7.53017 472.516 -1.5799 475.461 0.984872ZM461.266 1.21236C462.65 3.16248 474.551 47.3809 479.26 68.0686C506.87 189.375 498.182 257.578 442.419 357.284C420.383 396.685 419.407 400.316 416.287 454.522C414.394 487.415 412.603 506.103 408.637 534.365C399.115 602.242 401.268 639.053 417.797 690.927C420.064 698.042 423.781 709.683 426.057 716.798C428.333 723.912 431.38 735.554 432.829 742.669C438.03 768.216 446.684 804.987 453.687 831.288C459.873 854.526 461.086 860.253 459.461 858.567C457.891 856.937 440.039 785.157 434.662 758.851C429.837 735.25 427.834 727.607 420.72 705.647C399.814 641.117 396.888 606.227 406.575 537.041C410.258 510.741 412.312 491.275 413.681 469.688C414.257 460.611 415.207 445.603 415.793 436.337C417.994 401.547 421.403 390.135 438.006 361.969C501.484 254.284 508.23 170.039 465.339 20.6279C460.303 3.08129 459.341 -1.5014 461.266 1.21236ZM450.98 7.35978C455.737 26.7075 467.32 105.408 474.185 165.037C480.782 222.321 466.267 271.181 426.123 326.827C399.359 363.926 389.206 407.336 386.081 498.026C383.417 575.383 382.889 587.176 381.346 603.948C376.086 661.13 387.299 721.183 413.245 774.784C428.556 806.416 432.763 815.754 439.747 833.608C447.411 853.203 449.581 859.832 447.795 858.195C447.26 857.704 445.322 853.088 443.487 847.936C437.02 829.765 427.684 807.997 417.14 786.506C392.715 736.724 382.111 698.877 378.859 649.891C377.74 633.036 377.939 626.327 380.484 595.027C381.281 585.214 382.409 559.722 382.989 538.379C386.542 407.679 394.353 368.644 425.713 324.883C457.125 281.048 471.918 242.571 473.791 199.829C474.546 182.594 473.67 172.506 466.974 121.325C457.708 50.5024 451.882 14.0487 447.906 2.00721C447.622 1.14902 447.815 0.446047 448.335 0.446047C448.854 0.446047 450.046 3.55678 450.98 7.35978ZM433.188 0.768985C433.188 0.947404 434.358 6.06535 435.787 12.1432C454.976 93.7315 461.939 200.049 451.039 245.013C442.473 280.35 411.204 323.286 400.222 314.792C386.896 304.485 375.747 222.875 379.958 166.46C381.727 142.757 380.461 117.835 374.763 64.2308C370.471 23.8582 368.664 0.446047 369.841 0.446047C370.209 0.446047 370.816 4.76111 371.19 10.0361C371.563 15.311 373.671 37.0888 375.874 58.4322C382.647 124.043 383.732 149.033 380.934 174.851C377.012 211.031 387.412 291.243 398.482 310.196C402.315 316.759 403.76 316.53 413.343 307.839C453.55 271.372 462.61 219.302 449.056 102.591C444.609 64.2888 435.859 13.9872 431.562 2.00721C431.253 1.14902 431.494 0.446047 432.095 0.446047C432.696 0.446047 433.188 0.591459 433.188 0.768985ZM355.943 15.8347C355.992 24.6004 357.094 41.014 358.504 53.9717C360.751 74.6371 360.934 79.7425 360.505 109.728C358.589 243.569 359.427 256.077 372.709 291.598C381.301 314.574 383.379 326.863 379.967 334.503C377.516 339.991 375.841 354.453 375.83 370.219C375.817 390.504 374.448 410.146 371.231 436.234C364.603 489.973 361.292 544.583 361.168 602.164L361.091 637.848L364.883 657.028C378.689 726.845 377.538 751.333 358.321 796.64C354.3 806.122 353.799 816.568 356.204 840.799C357.164 850.471 357.26 855.297 356.525 856.857C355.675 858.661 355.461 857.727 355.408 851.972C355.373 848.058 354.586 838.423 353.659 830.561C351.545 812.621 352.398 805.792 358.47 792.032C365.151 776.888 369.516 764.851 370.918 757.709C374.622 738.82 369.924 683.427 361.773 649.891C356.377 627.693 360.741 503.673 369.18 439.357C372.23 416.108 372.869 407.733 373.839 378.248C374.507 357.965 375.341 345.848 376.357 341.672C380.388 325.094 380.362 325.324 379.075 317.57C378.393 313.462 374.889 302.111 371.289 292.348C357.922 256.101 354.914 220.941 358.524 143.181C360.331 104.272 360.051 89.5145 356.874 56.0806C354.428 30.3392 353.468 0.446047 355.088 0.446047C355.511 0.446939 355.895 7.37138 355.943 15.8347ZM337.278 57.7631C336.245 148.75 338.601 190.269 348.24 251.001C352.608 278.523 353.586 289.932 352.366 299.139C351.802 303.397 350.573 312.501 349.635 319.37C347.723 333.379 348.063 371.811 350.24 387.615C352.986 407.557 352.024 419.964 346.159 440.249C330.877 493.101 329.391 532.21 338.99 628.927C344.396 683.401 345.188 692.816 346.007 712.338C347.094 738.223 346.039 759.62 342.644 780.583C339.121 802.333 337.936 817.192 337.933 839.684C337.932 853.404 337.604 858.641 336.75 858.641C333.785 858.641 337.146 800.579 341.447 777.508C346.724 749.201 346.058 713.343 338.993 645.578C327.818 538.358 328.722 494.868 343.17 444.709C350.659 418.713 351.17 413.407 348.574 388.507C345.757 361.474 345.968 330.291 349.104 310.449C352.098 291.508 351.764 284.353 346.217 248.448C336.828 187.666 333.933 135.909 335.517 57.094C335.999 33.0521 336.395 10.4705 336.395 6.91284C336.395 3.35517 336.74 0.445155 337.161 0.445155C337.583 0.446047 337.635 26.2383 337.278 57.7631ZM315.186 14.9426C314.499 35.6508 315.973 78.3437 317.826 91.4397C320.882 113.029 323.052 166.917 324.651 260.938C325.207 293.566 326.099 326.685 326.635 334.535C327.172 342.386 327.618 358.444 327.627 370.219C327.644 392.065 327.366 394.821 322.173 424.191C312.611 478.266 308.374 539.999 312.558 564.25C316.093 584.73 316.661 597.705 317.173 669.517C317.622 732.484 316.051 857.471 314.798 858.567C313.523 859.682 313.49 854.588 314.528 816.658C317.347 713.565 315.949 595.199 311.604 569.156C306.515 538.65 313.401 445.749 323.637 406.795C325.983 397.872 326.923 373.817 325.767 352.377C325.131 340.602 323.94 299.454 323.118 260.938C320.8 152.189 318.96 109.081 315.786 89.2094C313.633 75.7263 312.436 0.446047 314.374 0.446047C315.382 0.446047 315.561 3.64242 315.186 14.9426ZM298.433 6.84772C299.438 17.1532 300.723 363.083 299.854 389.399C298.888 418.636 296.839 453.526 292.753 510.278C289.011 562.246 289.132 570.283 294.254 609.747C300.892 660.896 301.894 686.231 298.398 714.568C296.356 731.121 295.703 796.576 297.161 838.569C297.552 849.854 297.487 858.016 297.016 856.707C294.1 848.612 293.271 747.178 295.92 722.597C298.9 694.949 299.247 688.587 298.645 672.639C297.949 654.202 296.449 638.967 291.75 602.61C287.209 567.47 287.176 564.688 290.7 515.631C298.962 400.634 298.93 402.065 298.019 188.232C297.581 85.195 297.352 0.761849 297.509 0.603056C297.667 0.443371 298.082 3.25347 298.433 6.84772ZM275.783 22.9714C268.999 149.892 267.476 218.86 270.263 272.981C272.179 310.182 272.239 426.762 270.378 495.559C268.798 553.92 269.19 563.218 274.912 603.056C281.349 647.875 282.604 696.682 279.637 786.827C277.437 853.643 277.197 858.641 276.184 858.641C275.539 858.641 275.411 854.063 275.83 845.929C277.79 807.85 278.872 759.835 278.949 707.431C279.043 643.609 278.951 641.984 272.888 600.38C268.112 567.609 266.938 544.357 268.272 508.94C270.066 461.262 270.705 331.223 269.316 296.175C266.442 223.663 266.78 178.511 270.872 88.3174C274.066 17.9498 275.149 0.446047 276.311 0.446047C276.683 0.445155 276.445 10.582 275.783 22.9714ZM260.802 17.1728C260.12 35.5232 258.921 44.9241 252.929 78.9504C244.659 125.906 243.047 149.675 244.275 206.52C244.747 228.354 245.212 263.079 245.31 283.686C245.407 304.293 246.253 338.215 247.189 359.068C249.509 410.76 249.536 450.104 247.26 467.458C245.363 481.923 245.58 518.625 247.77 553.545C252.015 621.256 253.105 646.553 253.94 696.726C254.455 727.637 255.138 756.942 255.46 761.849C255.781 766.755 256.95 788.634 258.059 810.468C259.167 832.302 260.323 852.072 260.628 854.404C260.932 856.734 260.764 858.641 260.254 858.641C259.167 858.641 258.538 851.069 256.511 813.59C253.428 756.568 252.791 739.059 251.875 686.021C251.357 656.091 250.248 620.764 249.409 607.516C243.972 521.679 242.951 481.967 245.773 466.119C247.816 454.655 247.599 400.674 245.305 349.701C244.356 328.603 243.689 299.699 243.823 285.47C243.957 271.241 243.459 241.936 242.716 220.347C240.419 153.535 241.95 133.022 254.871 57.5401C258.024 39.1237 259.062 28.2687 259.062 13.7329C259.062 4.29454 259.405 0.446047 260.243 0.446047C261.115 0.446047 261.262 4.82445 260.802 17.1728ZM235.225 23.8635C234.809 42.0266 233.984 52.4846 231.552 70.4755C224.395 123.4 223.3 146.611 222.524 261.83C221.926 350.541 222.966 407.979 225.526 427.477C226.911 438.021 227.139 509.398 226.263 657.028C225.765 741.165 225.97 749.245 229.959 801.547C230.839 813.077 232.391 830.54 233.409 840.353C235.121 856.862 235.216 859.58 234.046 858.561C231.874 856.669 225.51 770.395 224.314 726.611C223.536 698.15 223.59 686.901 224.945 595.027C226.116 515.596 225.877 447.434 224.382 434.45C218.572 384.019 219.182 168.488 225.305 107.943C225.9 102.056 227.748 86.6358 229.413 73.6781C233.283 43.5529 234.88 22.1498 234.165 10.0361C233.784 3.58533 233.953 0.446047 234.68 0.446047C235.426 0.446047 235.595 7.71929 235.225 23.8635ZM205.632 26.3168C205.718 40.791 204.887 87.3584 203.786 129.8C199.123 309.501 198.717 370.077 201.658 446.493C202.606 471.111 202.598 500.312 201.62 577.631C199.952 709.571 201.04 788.001 205.382 849.051C205.804 854.974 205.689 858.641 205.085 858.641C204.128 858.641 203.031 841.28 200.49 785.935C199.033 754.227 198.856 663.409 200.018 545.516C200.677 478.661 200.582 450.807 199.63 432.666C198.935 419.418 198.255 384.493 198.118 355.054C197.866 300.804 198.305 273.555 201.135 167.714C202.001 135.331 203.002 94.785 203.361 77.6122C203.718 60.4394 204.34 35.9514 204.742 23.1945L205.475 0L205.632 26.3168ZM182.635 9.14397C186.814 64.5082 186.916 285.464 182.781 324.722C180.892 342.655 180.716 407.224 182.342 485.745C183.48 540.772 183.46 542.091 180.817 586.552C171.639 740.916 171.636 741.622 179.664 830.97C181.892 855.762 182.055 859.695 180.806 858.567C180.268 858.08 175.487 803.571 173.538 775.676C170.814 736.71 171.285 719.393 178.244 602.61C181.389 549.837 181.402 549.203 180.544 492.882C179.308 411.676 179.521 334.636 181.01 324.276C185.189 295.215 184.929 36.451 180.688 4.6835C180.378 2.35335 180.541 0.446047 181.051 0.446047C181.561 0.446047 182.274 4.35967 182.635 9.14397ZM163.877 29.0671C163.917 44.9723 164.119 59.7926 164.327 62.0006C164.534 64.2085 164.964 83.6785 165.284 105.267C165.602 126.856 166.602 172.219 167.505 206.074C169.372 276.063 169.059 296.091 165.423 339.442C159.046 415.464 158.896 453.907 164.827 491.99C172.769 542.983 169.165 623.44 155.616 697.618C148.183 738.315 148.102 757.378 155.221 790.842C161.145 818.693 162.921 830.567 163.292 844.814L163.665 859.087L162.728 847.49C161.606 833.6 158.934 816.88 154.173 793.964C146.303 756.082 146.294 740.494 154.116 696.712C168.054 618.691 171.201 543.389 162.783 489.314C157.103 452.819 157.221 419.227 163.296 344.348C167.852 288.205 167.932 285.115 166.354 226.156C162.999 100.773 161.599 2.07055 163.156 0.713676C163.514 0.403227 163.838 13.162 163.877 29.0671ZM143.762 2.89931C149.815 27.4944 148.5 107.279 139.237 277.441C134.496 364.545 133.93 378.376 134.598 390.737C136.109 418.646 138.411 439.056 145.866 490.652C153.173 541.212 154.016 550.263 154.009 578.077C154.001 616.082 150.925 632.365 135.146 677.933C119.631 722.743 120.978 763.755 140.747 848.339C142.907 857.586 143.107 859.645 141.723 858.439C140.199 857.113 130.074 806.189 126.508 781.921C119.225 732.355 120.881 713.948 136.742 668.179C156.106 612.303 157.281 582.515 143.832 488.422C131.164 399.784 130.988 393.771 137.588 275.211C146.926 107.503 148.356 10.6008 141.635 1.12939C141.369 0.75382 141.602 0.446047 142.154 0.446047C142.706 0.446047 143.429 1.54957 143.762 2.89931ZM119.633 7.35978C126.144 47.1641 124.211 249.464 116.145 372.449C112.578 426.838 114.752 441.643 134.624 498.235C143.23 522.746 143.809 526.903 143.74 563.804C143.64 618.225 138.948 635.82 118.288 659.258C91.0926 690.111 90.6183 741.203 116.515 850.389C117.591 854.927 118.103 858.641 117.65 858.641C115.63 858.641 104.823 804.919 99.8829 770.324C90.645 705.637 93.8674 685.245 117.708 657.497C137.016 635.024 141.141 620.28 141.998 570.689C142.717 529.008 141.807 523.025 129.497 488.422C114.274 445.634 111.235 424.352 114.02 380.032C122.993 237.207 124.65 34.8399 117.106 2.89931C116.787 1.54957 116.971 0.446047 117.515 0.446047C118.058 0.446047 119.011 3.55678 119.633 7.35978ZM92.4877 8.25187C92.8625 12.5455 94.7718 29.1046 96.7292 45.0508C105.227 114.273 104.746 106.296 104.954 181.541C105.245 287.026 103.544 349.29 99.1659 393.414C94.3242 442.212 97.0948 461.832 112.768 489.731C128.212 517.22 133.568 540.353 133.532 579.415C133.498 616.71 128.913 626.877 96.3881 661.765C77.563 681.958 75.2195 693.466 81.7288 733.748C85.8903 759.503 85.6527 756.974 88.5145 806.007C89.9034 829.804 91.2841 851.381 91.5822 853.958C91.8802 856.534 91.7195 858.641 91.2237 858.641C90.1401 858.641 89.715 853.376 86.4384 799.429C84.4123 766.067 83.2631 753.803 80.7537 738.767C73.3103 694.171 75.5698 681.88 95.0463 660.991C111.516 643.329 116.717 636.975 121.289 628.927C140.336 595.406 135.695 534.153 110.714 489.314C95.498 462.004 92.2336 437.947 97.5189 392.076C101.418 358.225 103.344 292.171 103.361 191.631C103.376 111.378 103.496 113.12 90.478 5.57559C90.1113 2.54871 90.2559 0.446047 90.8305 0.446047C91.3661 0.446047 92.1118 3.95912 92.4877 8.25187ZM77.7711 11.6713C77.7762 25.9546 79.2551 44.0382 81.8517 61.5545C89.2715 111.622 92.8165 401.546 86.504 442.033C84.8549 452.609 80.8581 472.733 73.7128 506.453C56.0114 589.974 54.9482 655.006 70.1125 726.617C77.2036 760.101 82.1835 844.846 77.7669 856.857C77.3162 858.083 76.8983 844.434 76.8398 826.526C76.6811 778.086 75.0751 758.846 68.5751 727.503C52.9243 652.037 54.4679 588.438 74.1953 495.99C88.2145 430.292 87.4974 439.28 87.4974 329.183C87.4974 180.497 85.0966 91.2399 80.3337 62.8927C77.2435 44.4968 75.1386 2.4372 77.2179 0.62625C77.52 0.363975 77.769 5.33383 77.7711 11.6713ZM61.9501 2.45326C58.9664 14.617 58.9747 44.6342 61.9655 65.5689C63.9844 79.6944 64.1257 148.865 62.3322 244.434C61.6501 280.742 61.3755 326.646 61.7207 346.442C62.578 395.512 61.2874 411.817 49.3588 502.695L42.5085 554.883L42.5074 600.826C42.5064 645.561 43.3893 667.696 46.5994 703.417C48.0303 719.338 49.4704 730.12 55.2053 767.856C58.7523 791.197 62.2543 834.068 62.3854 855.742C62.4581 867.814 60.5387 854.709 59.9927 839.403C58.907 808.982 56.3269 784.057 50.6238 748.913C38.6152 674.911 37.0112 583.953 46.4703 513.4C50.971 479.839 55.8425 439.411 58.5107 413.486C59.3588 405.243 59.7745 388.901 59.6558 368.435C59.5533 350.772 60.1894 289.15 61.0693 231.499C62.6476 128.128 62.4131 77.3482 60.3011 65.1229C57.0193 46.115 57.8868 0.446047 61.5302 0.446047C62.032 0.446047 62.2205 1.34885 61.9501 2.45326ZM41.941 111.735C41.9543 172.944 42.1551 244.501 42.3876 270.751C42.866 324.556 41.8171 363.987 39.4715 380.478C36.4663 401.601 33.0832 447.153 30.6588 499.127C29.3446 527.31 29.3323 606.302 30.6382 629.101C31.1954 638.818 32.3508 673.063 33.2081 705.201C34.0644 737.338 35.2341 769.052 35.8067 775.676C37.7354 797.954 41.7362 858.191 41.3121 858.567C40.2541 859.505 39.9078 856.273 37.8798 826.525C36.6926 809.107 35.2946 789.838 34.7733 783.705C33.2368 765.626 32.6991 752.366 31.135 694.05C30.3197 663.629 29.1223 629.306 28.4739 617.775C25.4575 564.071 31.134 420.397 37.9034 379.14C40.4958 363.34 40.8686 329.207 40.2131 167.937C39.6958 40.7758 39.8198 0.446047 40.7252 0.446047C41.6255 0.446047 41.9236 27.6799 41.941 111.735ZM20.6608 1.62807C21.0828 2.52374 20.9149 14.3663 20.288 27.9449C19.0497 54.8005 19.576 116.768 21.3398 151.656C25.2454 228.925 26.7327 354.494 24.1331 387.615C18.1575 463.746 14.6248 557.404 15.9061 605.732C16.9252 644.189 17.0493 715.228 16.1838 765.417C15.5466 802.348 16.3528 826.718 18.8203 845.159C20.6896 859.131 20.6967 859.265 19.4921 858.15C18.9892 857.684 18.0684 853.288 17.4477 848.382C14.4937 825.041 14.1608 809.551 14.8716 728.388C15.4278 664.924 15.2814 640.582 14.2407 622.999C12.0846 586.562 17.1506 441.06 22.4389 387.532C25.6203 355.33 24.0675 238.929 19.1367 140.059C17.0912 99.035 18.221 -3.56124 20.6608 1.62807ZM6.06799 74.3534C6.06799 129.586 6.50647 157.029 7.8042 182.966C11.3605 254.044 9.88239 349.782 4.72113 382.709L2.48315 396.982L2.51276 606.624C2.53943 798.505 2.69104 817.523 4.3053 831.097C6.29138 847.801 6.58221 858.641 5.04376 858.641C4.43536 858.641 4.01434 855.288 4.00616 850.389C3.99902 845.851 3.27698 835.915 2.40021 828.31C1.03174 816.426 0.729553 786.454 0.252258 615.099C-0.31311 411.782 -0.197449 403.41 3.48889 380.924C8.13092 352.608 9.42047 258.65 6.15717 186.376C3.78394 133.811 2.98499 0.446047 5.04376 0.446047C5.71875 0.446047 6.06799 25.6763 6.06799 74.3534ZM403.639 14.2343C430.023 29.8504 447.656 116.846 437.188 179.757C425.01 252.938 414.195 276.615 405.707 248.678C401.573 235.071 400.919 226.065 401.382 189.124C402.346 111.951 402.815 119.776 393.645 60.2164C387.46 20.0445 390.422 6.41238 403.639 14.2343ZM393.57 16.2807C391.062 21.4763 392.394 40.6251 397.758 76.4935C404.301 120.244 405.071 130.53 403.627 154.876C400.209 212.482 404.385 256.567 413.486 258.969C418.828 260.378 432.662 207.053 437.242 167.396C444.284 106.437 425.032 24.6423 401.24 14.4305C396.331 12.3234 395.369 12.5553 393.57 16.2807ZM412.536 51.2713C414.649 54.2982 419.675 73.307 422.867 90.3469C430.308 130.07 427.364 167.935 416.971 166.192C411.305 165.241 409.554 149.727 410.6 109.728C410.811 101.666 410.259 89.7849 409.211 79.8425C406.477 53.9093 407.606 44.2104 412.536 51.2713ZM409.058 60.5581C409.442 65.5217 410.447 76.2072 411.293 84.3029C412.45 95.3738 412.659 104.439 412.135 120.879C411.405 143.856 412.384 156.522 415.367 162.686L416.937 165.93L419.381 163.475C426.474 156.353 427.125 121.349 420.781 88.3174C414.342 54.7898 407.331 38.1879 409.058 60.5581ZM811.357 287.712C833.662 293.391 851.063 340.474 854.131 403.444C856.389 449.829 863.202 478.943 892.066 565.588C915.122 634.798 918.903 650.542 923.234 695.388C927.812 742.775 925.952 778.788 917.153 813.144C915.205 820.749 912.385 833.595 910.886 841.691C907.857 858.041 907.436 859.672 906.697 857.946C905.918 856.124 910.241 833.876 915.182 814.281C925.302 774.152 926.482 724.813 918.623 670.409C914.368 640.96 910.217 625.437 891.58 569.303C860.874 476.812 854.632 450.022 852.162 400.104C848.763 331.409 824.67 278.424 802.246 290.333C788.181 297.802 763.547 387.067 753.241 467.904C752.247 475.704 751.245 495.004 750.718 516.523C749.001 586.453 740.158 611.356 697.285 666.991C659.287 716.298 659.506 730.45 699.435 805.529C715.68 836.079 723.975 858.641 718.959 858.641C718.396 858.641 717.935 857.099 717.935 855.215C717.935 846.66 712.98 834.652 696.777 803.927C657.966 730.341 657.834 716.255 695.49 666.841C739.378 609.247 748.388 583.719 749.172 514.739C749.752 463.794 758.854 407.131 776.33 345.687C789.391 299.766 798.631 284.472 811.357 287.712ZM822.798 394.273C826.243 397.51 827.421 401.981 829.084 418.13C833.971 465.563 851.014 530.507 870.172 574.699C884.833 608.52 900.223 649.95 903.293 663.867C912.201 704.244 914.918 785.551 908.439 817.815C904.978 835.046 896.549 858.641 893.855 858.641C893.311 858.641 893.119 858.14 893.427 857.526C912.406 819.834 916.109 750.355 903.269 672.886C900.355 655.301 887.676 619.272 870.162 578.809C851.134 534.847 833.03 469.246 828.6 428.205C825.15 396.251 823.333 391.349 815.854 393.826C799.196 399.343 786.385 448.543 781.931 524.106C777.835 593.605 776.109 601.13 755.647 638.74C736.183 674.514 735.319 675.613 719.636 684.476C698.531 696.405 689.255 710.136 689.255 729.451C689.255 742.193 691.246 746.884 708.685 775.23C718.099 790.532 721.004 797.648 721.017 805.432C721.025 810.073 721.826 812.488 726.235 821.173C735.154 838.743 737.541 845.089 737.978 852.396L738.378 859.087L736.974 852.258C735.142 843.344 734.252 841.08 726.357 825.233C720.391 813.255 719.638 811.075 718.968 803.823C718.038 793.757 716.617 790.587 703.822 770.066C678.151 728.895 681.95 704.929 717.435 684.172C734.747 674.045 735.522 673.069 754.798 637.062C774.817 599.67 775.868 594.963 780.398 522.321C782.753 484.563 784.525 468.373 788.208 450.954C797.063 409.077 812.184 384.298 822.798 394.273ZM106.888 503.364C120.605 521.578 124.018 589.636 112.552 616.324C108.15 626.572 81.5239 659.704 77.69 659.704C68.5331 659.704 72.3547 604.315 85.5359 545.962C93.5294 510.577 97.2772 500.019 101.843 500.019C103.631 500.019 105.105 500.997 106.888 503.364ZM95.1703 514.381C75.9048 581.116 67.0244 667.842 80.5837 656.834C93.5745 646.289 112.413 615.279 115.152 599.934C124.383 548.207 106.951 473.57 95.1703 514.381ZM825.895 530.629C829.738 533.975 833.161 540.551 840.515 558.715C849.273 580.345 857.437 596.955 868.012 614.653C899.13 666.737 911.375 782.685 891.188 834.108C888.298 841.468 885.633 849.999 885.267 853.065C884.899 856.132 884.203 858.641 883.721 858.641C881.498 858.641 884.765 845.523 890.484 831.482C899.349 809.716 901.512 770.762 896.601 721.258C891.609 670.937 884.067 644.627 865.349 612.244C853.421 591.608 847.306 579.01 838.806 557.559C822.148 515.525 814.984 518.327 807.563 569.775C801.481 611.933 800.483 614.915 780.957 649.258C760.275 685.634 755.648 691.741 743.615 698.541C718.572 712.695 717.255 757.068 740.378 807.622C751.062 830.982 756.559 848.357 755.67 855.965C755.416 858.138 754.91 856.57 754.005 850.806C752.39 840.531 747.481 826.272 740.027 810.21C716.886 760.344 717.042 712.569 740.388 699.206C754.531 691.111 759.393 684.876 780.238 648.107C799.444 614.229 800.066 612.398 805.997 572.279C812.077 531.155 816.315 522.284 825.895 530.629ZM102.288 554.383C107.861 559.237 104.551 594.877 97.0109 611.197C89.25 627.997 84.2249 609.844 88.536 580.576C91.5678 559.996 96.9535 549.737 102.288 554.383ZM97.8241 555.829C90.4432 562.258 85.202 615.991 91.955 615.991C95.751 615.991 102.131 591.575 103.039 573.575C103.847 557.528 102.222 551.999 97.8241 555.829ZM833.368 631.956C853.092 644.401 879.847 697.663 886.541 737.807C891.225 765.906 887.058 813.559 878.041 835C876.597 838.435 874.315 844.858 872.97 849.274C869.895 859.366 869.375 860.281 870.075 854.37C870.381 851.774 872.036 846.154 873.752 841.88C897.868 781.797 888.725 708.838 849.966 652.106C830.219 623.201 819.374 624.383 807.585 656.727C796.458 687.253 796.32 687.488 784.759 695.564C741.815 725.565 739.312 744.826 767.192 830.743C773.641 850.617 775.423 858.641 773.388 858.641C772.72 858.641 772.221 857.194 772.221 855.255C772.221 853.393 768.959 841.651 764.97 829.162C738.02 744.753 740.465 724.842 781.253 696.53C792.59 688.661 795.504 684.957 799.899 672.83C801.715 667.818 804.591 659.905 806.291 655.243C814.49 632.764 823.021 625.428 833.368 631.956ZM827.861 676.208C867.125 687.964 886.477 785.495 859.26 834.454C853.923 844.055 843.18 859.187 842.268 858.391C841.981 858.141 843.9 855.01 846.533 851.434C884.557 799.767 874.721 698.495 829.737 678.507C821.036 674.641 819.886 675.701 805.128 701.186C792.652 722.73 788.613 728.137 782.466 731.517C761.222 743.197 759.305 779.034 777.799 818.775C787.589 839.812 794.177 858.641 791.747 858.641C791.247 858.641 790.515 856.934 790.12 854.85C788.904 848.435 784.678 837.595 775.773 818.051C757.234 777.36 759.223 745.362 781.204 730.666C788.699 725.655 792.483 720.642 803.12 701.632C817.554 675.839 819.602 673.735 827.861 676.208ZM833.39 707.851C860.514 722.255 861.25 819.163 834.328 831.272C817.791 838.708 801.895 827.518 788.272 798.854C778.955 779.246 779.288 767.353 789.519 754.266C792.012 751.077 796.326 744.252 799.106 739.1C801.886 733.948 806.219 725.936 808.736 721.293C816.385 707.187 824.159 702.948 833.39 707.851ZM821.985 708.234C817.193 709.978 813.211 715.438 804.966 731.58C801.071 739.204 795.279 748.922 792.096 753.176C780.912 768.119 780.586 779 790.69 800.138C803.493 826.923 820.335 837.732 835.579 828.946C856.209 817.056 858.315 737.728 838.63 714.06C833.961 708.447 827.557 706.206 821.985 708.234ZM829.948 743.8C839.433 752.061 840.174 795.97 830.964 803.99C818.414 814.922 798.538 781.715 805.374 761.234C809.787 748.01 823.563 738.239 829.948 743.8ZM820.567 744.82C804.105 752.31 800.326 778.31 813.25 795.166C826.533 812.49 835.583 804.926 835.69 776.41C835.784 751.382 830.483 740.307 820.567 744.82ZM389.678 789.835C398.071 793.155 408.884 806.249 418.298 824.49C424.675 836.846 432.392 855.681 431.899 857.684C431.708 858.455 430.474 856.277 429.155 852.842C402.828 784.292 362.673 765.626 371.57 826.073C372.691 833.689 371.093 858.641 369.484 858.641C369.022 858.641 368.961 855.73 369.35 852.173C370.365 842.844 370.337 828.167 369.286 819.281C366.882 798.94 376.734 784.713 389.678 789.835Z" fill="url(#paint0_linear_73_70)"/>
<defs>
<linearGradient id="paint0_linear_73_70" x1="556.955" y1="1178.84" x2="586.051" y2="-161.908" gradientUnits="userSpaceOnUse">
<stop stop-color="#EBD0BC"/>
<stop offset="0.150437" stop-color="#E3AD86" stop-opacity="0.606742"/>
<stop offset="0.392376" stop-color="#4D2509" stop-opacity="0"/>
<stop offset="0.814442" stop-color="white"/>
</linearGradient>
</defs>
</svg>
