<svg width="593" height="205" viewBox="0 0 593 205" fill="none" xmlns="http://www.w3.org/2000/svg">
<path d="M4.40625 0.9375V0H46.6562C57.4062 0 65.8854 0.854167 72.0938 2.5625C78.3438 4.22917 83.7812 6.875 88.4062 10.5C93.0312 14.125 96.6979 18.7708 99.4062 24.4375C102.115 30.0625 103.469 36.3542 103.469 43.3125C103.469 50.0208 102.052 56.625 99.2188 63.125C96.4271 69.5833 92.6146 75.1667 87.7812 79.875C82.9479 84.5417 77.8438 87.75 72.4688 89.5C67.1354 91.2083 58.8646 92.0625 47.6562 92.0625H4.40625V91.1875H5.53125C7.78125 91.1875 9.26042 90.2917 9.96875 88.5C10.6771 86.6667 11.0312 83.375 11.0312 78.625V11.5625C11.0312 6.5625 10.5938 3.54167 9.71875 2.5C8.88542 1.45833 7.11458 0.9375 4.40625 0.9375ZM35.7812 1.9375H21.6562V73.375C21.6562 77.875 22.4062 81.2292 23.9062 83.4375C25.4479 85.6042 28.0521 87.1875 31.7188 88.1875C35.3854 89.1458 40.3229 89.625 46.5312 89.625C63.7812 89.625 75.8854 85.2083 82.8438 76.375C89.8438 67.5 93.3438 57.8333 93.3438 47.375C93.3438 35.0833 88.5521 24.4375 78.9688 15.4375C69.4271 6.4375 55.0312 1.9375 35.7812 1.9375Z" fill="#333333"/>
<path d="M175.719 92.0625H162.688V81.4219C156.031 88.8281 148.094 92.5312 138.875 92.5312C132.031 92.5312 126.594 90.6094 122.562 86.7656C118.562 82.9219 116.562 77.6094 116.562 70.8281V29.4844C116.562 26.9844 116.266 25.4062 115.672 24.75C115.078 24.0625 113.688 23.7188 111.5 23.7188V23.0156H129.828V23.7188C127.891 23.7188 126.516 24.0312 125.703 24.6562C124.922 25.25 124.531 26.6875 124.531 28.9688V66.8906C124.531 74.8281 126.391 80.5 130.109 83.9062C133.828 87.2812 138.062 88.9688 142.812 88.9688C150.281 88.9688 156.906 85.6094 162.688 78.8906V32.1562C162.688 28.0625 162.328 25.6406 161.609 24.8906C160.891 24.1094 159.766 23.7188 158.234 23.7188H157.578V23.0156H175.719V23.7188C173.469 23.8438 172.047 24.2188 171.453 24.8438C170.891 25.4688 170.609 26.6562 170.609 28.4062V84.6562C170.609 86.875 170.719 88.3281 170.938 89.0156C171.156 89.7031 171.594 90.2812 172.25 90.75C172.938 91.1875 174.094 91.4062 175.719 91.4062V92.0625Z" fill="#333333"/>
<path d="M183.406 23.7188V23.0156H203C207.969 23.0156 211.562 23.125 213.781 23.3438C216 23.5625 218.266 24.2969 220.578 25.5469C222.922 26.7656 224.688 28.4375 225.875 30.5625C227.062 32.6562 227.656 35.2344 227.656 38.2969C227.656 41.7969 226.594 45.1406 224.469 48.3281C222.375 51.4844 219.406 54.1562 215.562 56.3438L220.438 63.8438C221.5 65.7188 224.312 69.8281 228.875 76.1719C233.469 82.5156 237.016 86.3906 239.516 87.7969C242.016 89.1719 244.438 89.8594 246.781 89.8594C249.094 89.8594 251.75 88.9688 254.75 87.1875L255.031 88.125C251.281 91.1875 246.406 92.7188 240.406 92.7188C236.406 92.7188 232.969 91.5469 230.094 89.2031C227.219 86.8281 222.219 80.3281 215.094 69.7031C215.031 69.6406 215 69.5781 215 69.5156L208.062 58.8281L201.922 59.0156H196.344V85.4531C196.344 87.5781 196.625 89.1094 197.188 90.0469C197.75 90.9531 199.109 91.4062 201.266 91.4062V92.0625H183.406V91.4062C185.625 91.3125 187 90.8438 187.531 90C188.094 89.1562 188.375 87.4375 188.375 84.8438V29.9531C188.375 28.1719 188.141 26.7031 187.672 25.5469C187.203 24.3594 185.781 23.75 183.406 23.7188ZM196.344 24.8438V57.2344H203.562C209.25 57.2344 213.469 55.8906 216.219 53.2031C218.969 50.5156 220.344 46.9844 220.344 42.6094C220.344 38.3594 218.984 34.3438 216.266 30.5625C213.578 26.75 208.828 24.8438 202.016 24.8438H196.344Z" fill="#333333"/>
<path d="M295.812 60.2812H275.656L265.203 86.3906C264.484 88.2656 264.125 89.4219 264.125 89.8594C264.125 90.8906 264.891 91.4062 266.422 91.4062V92.0625H256.156V91.4062C257.531 91.4062 258.688 91.0781 259.625 90.4219C260.562 89.7344 261.594 87.9844 262.719 85.1719L287.75 21.9844H288.922L313.578 83.0156C313.578 83.3281 314.203 84.8125 315.453 87.4688C316.734 90.0938 318.672 91.4062 321.266 91.4062V92.0625H305.141V91.4062C306.609 91.4062 307.344 90.8281 307.344 89.6719C307.344 88.8906 306.984 87.6406 306.266 85.9219C306.141 85.7969 306.031 85.5938 305.938 85.3125C305.875 85 305.828 84.8438 305.797 84.8438L295.812 60.2812ZM276.312 58.3594H294.969L285.641 34.8281L276.312 58.3594Z" fill="#333333"/>
<path d="M325.719 23.7188V23.0156H343.672C348.922 23.0156 352.641 23.2344 354.828 23.6719C357.016 24.1094 359.109 24.9531 361.109 26.2031C363.109 27.4219 364.812 29.2031 366.219 31.5469C367.625 33.8594 368.328 36.5 368.328 39.4688C368.328 45.3125 365.453 49.9219 359.703 53.2969C364.672 54.1406 368.422 56.2031 370.953 59.4844C373.484 62.7344 374.75 66.6875 374.75 71.3438C374.75 75.6875 373.656 79.6406 371.469 83.2031C369.312 86.7656 366.828 89.1406 364.016 90.3281C361.234 91.4844 357.328 92.0625 352.297 92.0625H325.625V91.4062C327.75 91.4062 329.109 90.9844 329.703 90.1406C330.297 89.2656 330.594 87.0625 330.594 83.5312V31.5C330.594 29 330.516 27.2969 330.359 26.3906C330.234 25.4844 329.781 24.8125 329 24.375C328.219 23.9375 327.125 23.7188 325.719 23.7188ZM338.562 24.4688V54.7969H346.953C352.641 54.7969 356.406 53.1719 358.25 49.9219C360.125 46.6719 361.062 43.4375 361.062 40.2188C361.062 36.75 360.344 33.8594 358.906 31.5469C357.469 29.2031 355.359 27.4375 352.578 26.25C349.828 25.0625 345.766 24.4688 340.391 24.4688H338.562ZM343.953 56.25H338.562V78.1406C338.562 81.1719 338.672 83.1406 338.891 84.0469C339.141 84.9531 339.672 85.9062 340.484 86.9062C341.328 87.9062 342.672 88.7188 344.516 89.3438C346.359 89.9375 349.016 90.2344 352.484 90.2344C357.859 90.2344 361.656 89 363.875 86.5312C366.094 84.0312 367.203 80.3438 367.203 75.4688C367.203 70.4062 366.219 66.2812 364.25 63.0938C362.281 59.9062 360.047 57.9688 357.547 57.2812C355.078 56.5938 350.547 56.25 343.953 56.25Z" fill="#333333"/>
<path d="M399.453 23.0156V23.7188C398.547 23.625 397.531 23.7656 396.406 24.1406C395.312 24.5156 394.656 25.0625 394.438 25.7812C394.25 26.5 394.156 28.2031 394.156 30.8906V83.9062C394.156 86.7812 394.266 88.5469 394.484 89.2031C394.734 89.8281 395.188 90.3594 395.844 90.7969C396.531 91.2031 397.734 91.4062 399.453 91.4062V92.0625H381.031V91.4062C383.344 91.4062 384.781 90.9688 385.344 90.0938C385.906 89.1875 386.188 87.1562 386.188 84V31.5C386.188 28.2188 385.875 26.0781 385.25 25.0781C384.625 24.0469 383.219 23.5938 381.031 23.7188V23.0156H399.453Z" fill="#333333"/>
<path d="M403.859 92.0625V91.4062C406.016 91.4062 407.406 91 408.031 90.1875C408.688 89.375 409.016 87.9844 409.016 86.0156V29.4844C409.016 27.4844 408.766 26.0469 408.266 25.1719C407.766 24.2656 406.266 23.7812 403.766 23.7188V23.0156H422.281V23.7188C420.562 23.7188 419.359 23.9375 418.672 24.375C417.984 24.8125 417.531 25.3281 417.312 25.9219C417.094 26.5156 416.984 27.8594 416.984 29.9531V78.4219C416.984 82.5781 417.984 85.5156 419.984 87.2344C421.984 88.9219 425.406 89.7656 430.25 89.7656H438.688C442.75 89.7656 445.719 88.7656 447.594 86.7656C449.5 84.7656 450.562 81 450.781 75.4688H451.438V92.0625H403.859Z" fill="#333333"/>
<path d="M476.422 23.0156V23.7188C475.516 23.625 474.5 23.7656 473.375 24.1406C472.281 24.5156 471.625 25.0625 471.406 25.7812C471.219 26.5 471.125 28.2031 471.125 30.8906V83.9062C471.125 86.7812 471.234 88.5469 471.453 89.2031C471.703 89.8281 472.156 90.3594 472.812 90.7969C473.5 91.2031 474.703 91.4062 476.422 91.4062V92.0625H458V91.4062C460.312 91.4062 461.75 90.9688 462.312 90.0938C462.875 89.1875 463.156 87.1562 463.156 84V31.5C463.156 28.2188 462.844 26.0781 462.219 25.0781C461.594 24.0469 460.188 23.5938 458 23.7188V23.0156H476.422Z" fill="#333333"/>
<path d="M537.734 20.625L534.453 28.9688H533.797C533.922 28.4688 533.984 27.7969 533.984 26.9531C533.984 26.2344 533.719 25.7812 533.188 25.5938C532.688 25.375 531.875 25.2656 530.75 25.2656H512.703V84.375C512.703 86.8125 512.891 88.4844 513.266 89.3906C513.672 90.2656 514.203 90.8281 514.859 91.0781C515.547 91.2969 516.641 91.4062 518.141 91.4062V92.0625H499.438V91.4062C501.781 91.25 503.25 90.7969 503.844 90.0469C504.438 89.2969 504.734 87.7344 504.734 85.3594V25.2656H487.438C485.688 25.2656 484.547 25.375 484.016 25.5938C483.484 25.7812 483.219 26.2812 483.219 27.0938C483.219 27.5 483.344 28.125 483.594 28.9688H482.938L479.656 20.625H480.312C480.875 21.75 481.422 22.4375 481.953 22.6875C482.516 22.9062 483.703 23.0156 485.516 23.0156H531.406C533.219 23.0156 534.516 22.9062 535.297 22.6875C536.109 22.4375 536.703 21.75 537.078 20.625H537.734Z" fill="#333333"/>
<path d="M581.75 23.0156H592.109V23.7188C590.797 23.8125 589.719 24.125 588.875 24.6562C588.031 25.1875 587.062 26.2812 585.969 27.9375L569.094 53.4844V85.1719C569.094 87.7344 569.422 89.4219 570.078 90.2344C570.734 91.0156 572.156 91.4062 574.344 91.4062V92.0625H555.922V91.4062C559.453 91.625 561.219 90.2344 561.219 87.2344L561.125 85.2656V56.0625L544.203 28.0312C542.422 25.0625 540.438 23.625 538.25 23.7188V23.0156H554.562V23.7188C553.031 23.7188 552.266 24.2969 552.266 25.4531C552.266 26.0469 552.656 26.9688 553.438 28.2188L567.359 51.1875L582.594 28.0312C582.875 27.7812 583.188 27.3281 583.531 26.6719C583.875 25.9844 584.047 25.5156 584.047 25.2656C584.047 24.2344 583.375 23.7188 582.031 23.7188H581.75V23.0156Z" fill="#333333"/>
<path d="M39.6562 172.281H19.5L9.04688 198.391C8.32812 200.266 7.96875 201.422 7.96875 201.859C7.96875 202.891 8.73438 203.406 10.2656 203.406V204.062H0V203.406C1.375 203.406 2.53125 203.078 3.46875 202.422C4.40625 201.734 5.4375 199.984 6.5625 197.172L31.5938 133.984H32.7656L57.4219 195.016C57.4219 195.328 58.0469 196.812 59.2969 199.469C60.5781 202.094 62.5156 203.406 65.1094 203.406V204.062H48.9844V203.406C50.4531 203.406 51.1875 202.828 51.1875 201.672C51.1875 200.891 50.8281 199.641 50.1094 197.922C49.9844 197.797 49.875 197.594 49.7812 197.312C49.7188 197 49.6719 196.844 49.6406 196.844L39.6562 172.281ZM20.1562 170.359H38.8125L29.4844 146.828L20.1562 170.359Z" fill="#333333"/>
<path d="M115.266 132.625L111.984 140.969H111.328C111.453 140.469 111.516 139.797 111.516 138.953C111.516 138.234 111.25 137.781 110.719 137.594C110.219 137.375 109.406 137.266 108.281 137.266H90.2344V196.375C90.2344 198.812 90.4219 200.484 90.7969 201.391C91.2031 202.266 91.7344 202.828 92.3906 203.078C93.0781 203.297 94.1719 203.406 95.6719 203.406V204.062H76.9688V203.406C79.3125 203.25 80.7812 202.797 81.375 202.047C81.9688 201.297 82.2656 199.734 82.2656 197.359V137.266H64.9688C63.2188 137.266 62.0781 137.375 61.5469 137.594C61.0156 137.781 60.75 138.281 60.75 139.094C60.75 139.5 60.875 140.125 61.125 140.969H60.4688L57.1875 132.625H57.8438C58.4062 133.75 58.9531 134.438 59.4844 134.688C60.0469 134.906 61.2344 135.016 63.0469 135.016H108.938C110.75 135.016 112.047 134.906 112.828 134.688C113.641 134.438 114.234 133.75 114.609 132.625H115.266Z" fill="#333333"/>
<path d="M164.859 135.016V135.719C163.953 135.625 162.938 135.766 161.812 136.141C160.719 136.516 160.062 137.062 159.844 137.781C159.656 138.5 159.562 140.203 159.562 142.891V195.906C159.562 198.781 159.672 200.547 159.891 201.203C160.141 201.828 160.594 202.359 161.25 202.797C161.938 203.203 163.141 203.406 164.859 203.406V204.062H146.438V203.406C148.75 203.406 150.188 202.969 150.75 202.094C151.312 201.188 151.594 199.156 151.594 196V143.5C151.594 140.219 151.281 138.078 150.656 137.078C150.031 136.047 148.625 135.594 146.438 135.719V135.016H164.859Z" fill="#333333"/>
<path d="M226.172 132.625L222.891 140.969H222.234C222.359 140.469 222.422 139.797 222.422 138.953C222.422 138.234 222.156 137.781 221.625 137.594C221.125 137.375 220.312 137.266 219.188 137.266H201.141V196.375C201.141 198.812 201.328 200.484 201.703 201.391C202.109 202.266 202.641 202.828 203.297 203.078C203.984 203.297 205.078 203.406 206.578 203.406V204.062H187.875V203.406C190.219 203.25 191.688 202.797 192.281 202.047C192.875 201.297 193.172 199.734 193.172 197.359V137.266H175.875C174.125 137.266 172.984 137.375 172.453 137.594C171.922 137.781 171.656 138.281 171.656 139.094C171.656 139.5 171.781 140.125 172.031 140.969H171.375L168.094 132.625H168.75C169.312 133.75 169.859 134.438 170.391 134.688C170.953 134.906 172.141 135.016 173.953 135.016H219.844C221.656 135.016 222.953 134.906 223.734 134.688C224.547 134.438 225.141 133.75 225.516 132.625H226.172Z" fill="#333333"/>
<path d="M262.969 135.906L266.25 144.531L265.688 144.625C265.688 144.594 264.812 143.672 263.062 141.859C261.344 140.047 259.359 138.656 257.109 137.688C254.891 136.688 252.375 136.188 249.562 136.188C244.844 136.188 241.094 137.547 238.312 140.266C235.562 142.953 234.188 146.203 234.188 150.016C234.188 152.547 234.828 154.766 236.109 156.672C237.422 158.547 240.141 160.297 244.266 161.922C251.359 164.297 256.203 166.094 258.797 167.312C261.422 168.5 263.938 170.531 266.344 173.406C268.781 176.281 270 179.969 270 184.469C270 186.344 269.781 188.141 269.344 189.859C268.906 191.547 268.203 193.188 267.234 194.781C266.266 196.344 265.094 197.781 263.719 199.094C262.375 200.375 261 201.359 259.594 202.047C258.188 202.703 255.969 203.203 252.938 203.547C249.906 203.891 247.906 204.062 246.938 204.062H228.516V184H229.219C229.281 190.656 230.844 195.297 233.906 197.922C236.969 200.547 241.734 201.859 248.203 201.859C254.078 201.859 258.531 200.469 261.562 197.688C264.625 194.906 266.156 191.562 266.156 187.656C266.156 185.281 265.625 183.266 264.562 181.609C263.5 179.922 262.016 178.453 260.109 177.203C258.203 175.922 254.594 174.375 249.281 172.562C244 170.719 240.281 169.109 238.125 167.734C236 166.328 234.219 164.234 232.781 161.453C231.344 158.641 230.625 155.781 230.625 152.875C230.625 147.531 232.453 143.047 236.109 139.422C239.797 135.797 244.625 133.984 250.594 133.984C252.906 133.984 255.406 134.25 258.094 134.781C260.781 135.312 262.281 135.656 262.594 135.812C262.719 135.875 262.844 135.906 262.969 135.906Z" fill="#333333"/>
<path d="M304.031 135.719V135.016H321.984C327.234 135.016 330.953 135.234 333.141 135.672C335.328 136.109 337.422 136.953 339.422 138.203C341.422 139.422 343.125 141.203 344.531 143.547C345.938 145.859 346.641 148.5 346.641 151.469C346.641 157.312 343.766 161.922 338.016 165.297C342.984 166.141 346.734 168.203 349.266 171.484C351.797 174.734 353.062 178.688 353.062 183.344C353.062 187.688 351.969 191.641 349.781 195.203C347.625 198.766 345.141 201.141 342.328 202.328C339.547 203.484 335.641 204.062 330.609 204.062H303.938V203.406C306.062 203.406 307.422 202.984 308.016 202.141C308.609 201.266 308.906 199.062 308.906 195.531V143.5C308.906 141 308.828 139.297 308.672 138.391C308.547 137.484 308.094 136.812 307.312 136.375C306.531 135.938 305.438 135.719 304.031 135.719ZM316.875 136.469V166.797H325.266C330.953 166.797 334.719 165.172 336.562 161.922C338.438 158.672 339.375 155.438 339.375 152.219C339.375 148.75 338.656 145.859 337.219 143.547C335.781 141.203 333.672 139.438 330.891 138.25C328.141 137.062 324.078 136.469 318.703 136.469H316.875ZM322.266 168.25H316.875V190.141C316.875 193.172 316.984 195.141 317.203 196.047C317.453 196.953 317.984 197.906 318.797 198.906C319.641 199.906 320.984 200.719 322.828 201.344C324.672 201.938 327.328 202.234 330.797 202.234C336.172 202.234 339.969 201 342.188 198.531C344.406 196.031 345.516 192.344 345.516 187.469C345.516 182.406 344.531 178.281 342.562 175.094C340.594 171.906 338.359 169.969 335.859 169.281C333.391 168.594 328.859 168.25 322.266 168.25Z" fill="#333333"/>
<path d="M359.812 135.812V135.016H403.219V144.531H402.516C401.578 141 400.781 138.922 400.125 138.297C399.5 137.672 397.938 137.359 395.438 137.359H372.656V168.344H393.797C395.891 168.344 397.219 168.156 397.781 167.781C398.344 167.375 398.641 166.797 398.672 166.047H399.375V172.562H398.672C398.516 171.656 398.141 171.047 397.547 170.734C396.984 170.422 395.922 170.266 394.359 170.266H372.656V191.594C372.656 194.812 372.953 197.141 373.547 198.578C374.141 199.984 375.078 200.875 376.359 201.25C377.672 201.594 379.641 201.766 382.266 201.766H394.453C398.328 201.766 400.797 201.641 401.859 201.391C402.953 201.109 403.875 200.578 404.625 199.797C405.375 198.984 405.953 197.234 406.359 194.547H407.016V204.062H359.812V203.406C361.406 203.312 362.609 203.016 363.422 202.516C364.266 201.984 364.688 200.641 364.688 198.484V142.703C364.688 140.172 364.469 138.391 364.031 137.359C363.594 136.328 362.188 135.812 359.812 135.812Z" fill="#333333"/>
<path d="M444.938 135.906L448.219 144.531L447.656 144.625C447.656 144.594 446.781 143.672 445.031 141.859C443.312 140.047 441.328 138.656 439.078 137.688C436.859 136.688 434.344 136.188 431.531 136.188C426.812 136.188 423.062 137.547 420.281 140.266C417.531 142.953 416.156 146.203 416.156 150.016C416.156 152.547 416.797 154.766 418.078 156.672C419.391 158.547 422.109 160.297 426.234 161.922C433.328 164.297 438.172 166.094 440.766 167.312C443.391 168.5 445.906 170.531 448.312 173.406C450.75 176.281 451.969 179.969 451.969 184.469C451.969 186.344 451.75 188.141 451.312 189.859C450.875 191.547 450.172 193.188 449.203 194.781C448.234 196.344 447.062 197.781 445.688 199.094C444.344 200.375 442.969 201.359 441.562 202.047C440.156 202.703 437.938 203.203 434.906 203.547C431.875 203.891 429.875 204.062 428.906 204.062H410.484V184H411.188C411.25 190.656 412.812 195.297 415.875 197.922C418.938 200.547 423.703 201.859 430.172 201.859C436.047 201.859 440.5 200.469 443.531 197.688C446.594 194.906 448.125 191.562 448.125 187.656C448.125 185.281 447.594 183.266 446.531 181.609C445.469 179.922 443.984 178.453 442.078 177.203C440.172 175.922 436.562 174.375 431.25 172.562C425.969 170.719 422.25 169.109 420.094 167.734C417.969 166.328 416.188 164.234 414.75 161.453C413.312 158.641 412.594 155.781 412.594 152.875C412.594 147.531 414.422 143.047 418.078 139.422C421.766 135.797 426.594 133.984 432.562 133.984C434.875 133.984 437.375 134.25 440.062 134.781C442.75 135.312 444.25 135.656 444.562 135.812C444.688 135.875 444.812 135.906 444.938 135.906Z" fill="#333333"/>
<path d="M512.203 132.625L508.922 140.969H508.266C508.391 140.469 508.453 139.797 508.453 138.953C508.453 138.234 508.188 137.781 507.656 137.594C507.156 137.375 506.344 137.266 505.219 137.266H487.172V196.375C487.172 198.812 487.359 200.484 487.734 201.391C488.141 202.266 488.672 202.828 489.328 203.078C490.016 203.297 491.109 203.406 492.609 203.406V204.062H473.906V203.406C476.25 203.25 477.719 202.797 478.312 202.047C478.906 201.297 479.203 199.734 479.203 197.359V137.266H461.906C460.156 137.266 459.016 137.375 458.484 137.594C457.953 137.781 457.688 138.281 457.688 139.094C457.688 139.5 457.812 140.125 458.062 140.969H457.406L454.125 132.625H454.781C455.344 133.75 455.891 134.438 456.422 134.688C456.984 134.906 458.172 135.016 459.984 135.016H505.875C507.688 135.016 508.984 134.906 509.766 134.688C510.578 134.438 511.172 133.75 511.547 132.625H512.203Z" fill="#333333"/>
</svg>
