<svg width="44" height="30" viewBox="0 0 44 30" fill="none" xmlns="http://www.w3.org/2000/svg">
<path fill-rule="evenodd" clip-rule="evenodd" d="M19.7914 0.167178C17.3778 0.813198 17.3489 1.47414 19.4813 7.23684C19.5151 7.32821 18.2079 7.35197 13.1392 7.35197C6.09165 7.35197 6.26346 7.33944 5.07079 7.94199C-1.99568 11.5118 -1.56856 26.8285 5.67797 29.7163L6.29858 29.9636L21.767 29.9879C38.8084 30.0148 37.6924 30.0501 38.9285 29.4453C45.0875 26.4317 45.8289 13.2169 40.0935 8.678C38.5211 7.43358 38.1118 7.35271 33.362 7.34856L29.4661 7.34515L27.2073 4.16322C24.7652 0.723213 24.6353 0.582477 23.5894 0.245651C22.6857 -0.0453989 20.7361 -0.0857411 19.7914 0.167178ZM23.1661 1.49385C23.8668 1.7079 24.053 1.86614 23.8132 2.0439C23.0269 2.62701 20.6039 2.67426 19.4346 2.12928C18.2473 1.57592 21.578 1.00874 23.1661 1.49385ZM26.6123 5.59545C27.6 6.9795 28.396 8.12224 28.3811 8.13504C28.0848 8.38962 26.9077 8.75813 26.0341 8.86985L25.5674 8.92963L24.3197 6.38027C23.6334 4.97807 23.0593 3.79821 23.044 3.75824C23.0286 3.71827 23.1746 3.65886 23.3683 3.62607C23.562 3.59337 23.9291 3.44904 24.1839 3.30536C24.7989 2.9585 24.5894 2.76093 26.6123 5.59545ZM20.909 3.81719L21.6188 3.87807L22.8377 6.36139C24.2187 9.17518 24.1872 8.97992 23.2364 8.83062C21.435 8.54785 21.2442 8.34403 20.3826 5.78058C19.5735 3.37361 19.6282 3.63307 19.9443 3.70132C20.0844 3.73162 20.5185 3.78375 20.909 3.81719ZM8.21694 8.74413C13.1241 9.7699 15.2881 19.3085 11.993 25.3882C9.1961 30.5486 4.09016 29.5452 2.03149 23.4306C-0.350507 16.3555 3.28893 7.71394 8.21694 8.74413ZM20.3889 9.00405C22.2372 10.6974 27.6776 10.6806 29.3428 8.97651L29.6702 8.64143H33.325C38.2205 8.64143 38.9892 8.88431 40.4301 10.886L40.737 11.3125L36.4977 11.3125C31.7585 11.3125 31.8292 11.3024 31.8292 11.9732C31.8292 12.6215 31.6733 12.6019 36.8291 12.6019L41.4582 12.6019L41.6535 13.0394C41.8867 13.5621 42.3447 15.0698 42.4368 15.6183L42.5026 16.0098H40.6072C38.4736 16.0098 38.2235 16.0781 38.2235 16.6612C38.2235 17.261 38.3669 17.2993 40.6201 17.2993H42.6461L42.7079 18.0591C42.8632 19.9698 42.3688 22.7076 41.5268 24.6001L41.2918 25.1281H38.7382C35.9829 25.1281 35.8374 25.1544 35.8031 25.6577C35.753 26.3935 35.8088 26.4109 38.3058 26.439L40.4939 26.4636L39.9379 27.0532C39.2509 27.7816 38.4684 28.2976 37.6875 28.5374C37.1053 28.7161 36.7977 28.7202 24.0278 28.7202L10.9636 28.7202L11.5292 28.1581C11.8403 27.8489 12.2851 27.3308 12.5178 27.0068L12.9408 26.4176H17.6125C22.8242 26.4176 22.6549 26.4391 22.6549 25.7796C22.6549 25.1244 22.6826 25.1281 17.8788 25.1281H13.5912L13.8591 24.4945C14.0064 24.1459 14.249 23.3896 14.3982 22.8135L14.6695 21.7663L16.7107 21.7415L18.7521 21.7168L18.9427 21.4758C19.1836 21.1714 19.1834 20.9792 18.9413 20.6735L18.7493 20.4308H16.8173H14.8852L14.8955 18.865L14.9059 17.2993H24.011H33.1161L33.2603 17.0945C33.4817 16.7805 33.4414 16.4204 33.1604 16.2007C32.9172 16.0105 32.8821 16.0098 23.8216 16.0098H14.727L14.5641 15.2231C14.0745 12.8593 12.9646 10.6461 11.5752 9.26314L10.9505 8.64143H15.4718L19.993 8.64143L20.3889 9.00405ZM6.62292 11.0302C4.26261 11.7464 2.65571 15.2837 2.85468 19.3256C2.95643 21.3924 3.29328 22.4571 3.84551 22.4571C4.46501 22.4571 4.61198 22.0535 4.37623 20.9994C3.51282 17.1396 5.01695 12.6699 7.32323 12.2416C8.04189 12.1082 8.32639 11.5827 7.91669 11.1457C7.71764 10.9333 7.11853 10.8798 6.62292 11.0302ZM15.9987 11.5256C15.747 11.792 15.74 12.1766 15.9826 12.4177C16.1604 12.5945 16.2915 12.6019 19.2261 12.6019C22.6231 12.6019 22.6549 12.5961 22.6549 11.9732C22.6549 11.3281 22.5735 11.3125 19.2131 11.3125L16.2003 11.3125L15.9987 11.5256ZM25.8478 11.5386C25.5699 11.8147 25.5602 12.0405 25.8124 12.3592L26.0044 12.6019H27.4274L28.8503 12.6019L29.0423 12.3592C29.7475 11.4684 26.7048 10.6867 25.8478 11.5386ZM9.18387 12.2402C8.83228 12.5151 8.87277 12.8262 9.34789 13.5023C9.57132 13.8203 9.84748 14.3176 9.96155 14.6076C10.305 15.4804 10.8428 15.7285 11.257 15.2053C11.9104 14.3797 9.97962 11.6181 9.18387 12.2402ZM6.92688 14.3437C6.32165 14.7216 5.78778 15.7658 5.63766 16.8651C5.48549 17.9792 6.75257 18.0869 6.95218 16.9769C7.04624 16.4541 7.34705 15.6781 7.50672 15.5464C7.80957 15.2966 8.37263 17.1533 8.38041 18.4275C8.38431 19.0635 8.58383 19.3256 9.06432 19.3256C9.62303 19.3256 9.71551 19.1128 9.65463 17.9683C9.50923 15.2351 8.22742 13.5318 6.92688 14.3437ZM10.9735 18.2057C10.7848 18.3576 10.7549 18.4903 10.6882 19.4722C10.3485 24.4711 7.4981 26.7639 5.42294 23.7074C4.58233 22.4694 3.48697 22.8919 4.16985 24.1908C6.73848 29.0761 12.0905 25.446 12.0905 18.8184C12.0905 18.1853 11.4413 17.8292 10.9735 18.2057ZM5.74302 19.0654C4.92734 19.7031 6.16652 22.961 7.33565 23.2526C8.23492 23.477 8.61607 22.2881 7.74192 21.9852C7.34761 21.8486 6.81688 20.4499 6.80984 19.5286C6.80586 18.9956 6.17978 18.7238 5.74302 19.0654ZM24.2509 20.5742C24.0981 20.6805 24.0449 20.81 24.0449 21.0755C24.0449 21.7619 23.515 21.7203 32.2601 21.7203L40.0634 21.7203L40.2554 21.4776C40.3611 21.3441 40.4475 21.1632 40.4475 21.0755C40.4475 20.9879 40.3611 20.807 40.2554 20.6735L40.0634 20.4308L32.2601 20.4308C25.3475 20.4308 24.4333 20.4472 24.2509 20.5742ZM29.9253 25.3542C29.1915 26.0834 29.7153 26.4176 31.5923 26.4176C33.2769 26.4176 33.4046 26.3712 33.4046 25.759C33.4046 25.0973 30.5213 24.7618 29.9253 25.3542Z" fill="black"/>
</svg>
