<svg width="32" height="29" viewBox="0 0 32 29" fill="none" xmlns="http://www.w3.org/2000/svg">
<path fill-rule="evenodd" clip-rule="evenodd" d="M0.46894 0.49333C-0.037493 0.983609 -0.0402518 1.00345 0.0364029 3.54221C0.155228 7.47932 0.572985 7.82767 5.1768 7.82805L8.08337 7.82843V8.78228V9.73613H7.00646C4.81934 9.73613 4.80969 9.75368 1.95947 18.8931C-0.457616 26.6431 -0.469439 27.1408 1.73187 28.4657L2.46728 28.9085L15.473 28.9665C34.2388 29.0504 33.3737 29.6863 29.837 18.4057C27.1739 9.91221 27.1781 9.91965 25.0649 9.73727L23.9464 9.64074V8.78228V7.92381L26.9022 7.82843C31.4566 7.68154 31.9151 7.25364 31.9228 3.14331C31.9293 -0.296647 34.0067 0.111218 16.1733 0.0511259L0.978526 0L0.46894 0.49333ZM29.7595 3.81559C29.7595 6.12581 31.0959 5.92111 16.0279 5.91806C0.552687 5.91501 2.1717 6.15137 2.1717 3.89533V2.10534H15.9656H29.7595V3.81559ZM21.8773 8.78228V9.73613H15.9656H10.0539V8.78228V7.82843H15.9656H21.8773V8.78228ZM25.5943 11.9777C25.762 12.2821 29.5506 24.2152 29.8612 25.4174C29.9652 25.8197 29.8844 26.0387 29.4917 26.4189L28.9892 26.9054H15.9855H2.98199L2.44029 26.4542L1.89858 26.0033L4.03663 19.1573C5.21266 15.3921 6.27085 12.1614 6.3883 11.9777C6.71797 11.4618 25.3102 11.4618 25.5943 11.9777ZM14.388 13.7184C10.0476 15.0962 8.63296 19.974 11.6473 23.1671C16.0151 27.7936 23.6662 23.2806 21.5669 17.3162C20.6595 14.7379 16.9818 12.8951 14.388 13.7184ZM17.9395 16.0563C20.8372 17.6329 20.3948 21.8933 17.2285 22.905C15.5082 23.4546 13.3696 22.6432 12.5654 21.136C10.7438 17.7221 14.491 14.1799 17.9395 16.0563ZM15.2899 17.2851C14.9143 17.6489 14.8603 19.6544 15.2168 19.9995C16.0655 20.8212 16.9509 20.0942 16.9509 18.5754C16.9509 17.0878 16.1426 16.4598 15.2899 17.2851Z" fill="black"/>
</svg>
