<svg width="56" height="56" viewBox="0 0 56 56" fill="none" xmlns="http://www.w3.org/2000/svg">
<path d="M27.9527 11.485C18.815 11.485 11.4072 18.8927 11.4072 28.0304C11.4072 37.1682 18.815 44.5759 27.9527 44.5759C37.0904 44.5759 44.4981 37.1682 44.4981 28.0304C44.4879 18.8971 37.0861 11.4952 27.9527 11.485ZM27.9527 43.4729C19.4241 43.4729 12.5103 36.559 12.5103 28.0304C12.5103 19.5019 19.4241 12.588 27.9527 12.588C36.4813 12.588 43.3951 19.5019 43.3951 28.0304C43.3854 36.5549 36.4772 43.4632 27.9527 43.4729Z" fill="black" stroke="black" stroke-width="0.00946686" stroke-miterlimit="2" stroke-linejoin="round"/>
<path d="M40.6209 27.4183V27.3521C40.6093 27.1757 40.5977 26.9985 40.5805 26.8286C40.5635 26.6589 40.5457 26.4839 40.5253 26.3218C40.5067 26.1796 40.4878 26.0374 40.4636 25.9359C40.4399 25.7703 40.4084 25.6049 40.3731 25.4307L40.3567 25.3566C40.3279 25.2255 40.2974 25.0908 40.2662 24.9707C40.1811 24.622 40.0721 24.2536 39.9352 23.8599C39.8983 23.743 39.8558 23.6326 39.8178 23.5357C39.7627 23.3857 39.7042 23.2362 39.6406 23.0942C39.559 22.9015 39.4753 22.7154 39.391 22.5427C39.3137 22.3774 39.2305 22.2158 39.1476 22.0675C38.9461 21.6815 38.7224 21.3073 38.4781 20.9466L38.4671 20.9313V20.9286C38.4565 20.9133 38.4455 20.8987 38.4345 20.8828C38.3591 20.7724 38.2823 20.6623 38.2039 20.557L38.1269 20.4509C38.0203 20.303 37.9061 20.1603 37.7534 19.9788C37.7284 19.9508 37.705 19.9212 37.6834 19.8902C37.5967 19.7871 37.5046 19.6826 37.4076 19.573C37.3745 19.5372 37.3387 19.5024 37.3056 19.4671L38.2734 18.499L37.4935 17.7195L36.5252 18.6878C36.4816 18.6463 36.442 18.6057 36.3972 18.5647C36.2989 18.4783 36.2009 18.3911 36.0784 18.289C36.0668 18.2806 36.0547 18.272 36.0388 18.2594C36.0227 18.2464 36.0035 18.23 35.9758 18.2042C35.8331 18.0848 35.6901 17.9721 35.5527 17.8732L35.5447 17.867L35.4342 17.787C35.3063 17.6939 35.1795 17.6018 35.0484 17.5148C34.6904 17.2718 34.3189 17.0497 33.9359 16.8491C33.7754 16.7602 33.6149 16.6765 33.4638 16.6064C33.2766 16.5133 33.0898 16.4317 32.9045 16.3527C32.7545 16.2865 32.6045 16.2264 32.4513 16.1713C32.3462 16.1309 32.2409 16.0908 32.1446 16.0608C31.7347 15.9192 31.3663 15.8098 31.0283 15.7299C30.8859 15.6924 30.7386 15.6604 30.5517 15.6198C30.3863 15.585 30.2207 15.5546 30.0907 15.5376C29.9544 15.5077 29.8181 15.4897 29.6687 15.4703C29.5033 15.4471 29.3312 15.4299 29.1559 15.4118C28.9803 15.3935 28.8067 15.3836 28.5976 15.372C28.1797 15.3494 27.761 15.3494 27.343 15.372H27.2808C27.1037 15.3836 26.9261 15.3952 26.7501 15.4124C26.5742 15.4294 26.4072 15.4471 26.2278 15.4719C26.0922 15.4897 25.9559 15.5077 25.8584 15.5304C25.6928 15.5546 25.5274 15.5855 25.3144 15.6297C25.1717 15.6618 25.0244 15.6935 24.8921 15.7288C24.544 15.8123 24.175 15.9214 23.7808 16.0597C23.6704 16.095 23.564 16.1354 23.456 16.1767C23.3061 16.2318 23.156 16.2908 23.0146 16.3544C22.821 16.4359 22.6341 16.5197 22.4631 16.6043C22.2978 16.6807 22.1368 16.7648 21.9873 16.8474C21.9289 16.8781 21.872 16.9129 21.8141 16.9444C21.4905 17.1211 21.1711 17.3112 20.8675 17.5169H20.86L20.7997 17.56C20.6895 17.6336 20.5827 17.7089 20.479 17.7865L20.3718 17.8649C20.2975 17.9201 20.224 17.9753 20.148 18.0337C20.0718 18.0921 19.9913 18.1605 19.9024 18.2357C19.8913 18.2464 19.8793 18.2567 19.8666 18.2658L19.8114 18.3084C19.7133 18.3905 19.6151 18.4778 19.4945 18.5842C19.1519 18.8984 18.8193 19.2305 18.5015 19.5768C18.4089 19.6804 18.3168 19.7847 18.2126 19.911C18.1859 19.9479 18.1566 19.9826 18.125 20.0151C18.0063 20.1582 17.8935 20.3009 17.7941 20.4377L17.789 20.4439V20.4477L17.7109 20.5546C17.6177 20.6833 17.5248 20.8106 17.4351 20.9407C17.1922 21.2981 16.97 21.6692 16.7694 22.0521C16.6806 22.2126 16.5974 22.3731 16.5268 22.5253C16.4333 22.7121 16.3518 22.898 16.2723 23.0846C16.2069 23.2346 16.1468 23.3841 16.0981 23.52C16.0553 23.6305 16.0127 23.7408 15.9807 23.8445C15.8401 24.2525 15.7308 24.6204 15.6497 24.9613C15.6161 25.0914 15.5859 25.226 15.5571 25.3572L15.5395 25.4355C15.5038 25.6012 15.4738 25.7697 15.4574 25.8971C15.4259 26.0401 15.407 26.1823 15.389 26.3201C15.3664 26.4858 15.3487 26.6595 15.3338 26.8305C15.3187 27.0012 15.305 27.1784 15.2929 27.3912C15.2807 27.6041 15.2676 27.8164 15.2676 28.0305C15.2676 28.2445 15.273 28.4584 15.284 28.6426V28.7088C15.2956 28.8852 15.3071 29.0624 15.3244 29.2323C15.3413 29.402 15.3591 29.577 15.3796 29.7391C15.3982 29.8813 15.417 30.0235 15.4413 30.125C15.465 30.2906 15.4965 30.456 15.5318 30.6302L15.5482 30.7043C15.577 30.8354 15.6074 30.9701 15.6387 31.0902C15.7238 31.4389 15.8328 31.8073 15.9697 32.201C16.0065 32.3179 16.0491 32.4283 16.0871 32.5252C16.1423 32.6752 16.2007 32.8247 16.2642 32.9667C16.3459 33.1594 16.4296 33.3455 16.5139 33.5182C16.5911 33.6835 16.6744 33.8451 16.7578 33.9945C16.8211 34.1165 16.8906 34.2433 16.9601 34.3645L17.2359 34.845L21.5427 32.3632L21.2648 31.8911C19.8854 29.5022 19.8854 26.5587 21.2648 24.1698C21.9445 22.997 22.919 22.0225 24.0918 21.3428C26.4877 19.9898 29.4171 19.9898 31.813 21.3428C32.2339 21.5924 32.6301 21.8819 32.996 22.2069L29.4712 25.7317C28.2869 24.9478 26.7015 25.1883 25.8029 26.2881C24.9043 27.3879 24.9848 28.9897 25.989 29.9938C26.9932 30.9981 28.595 31.0786 29.6947 30.18C30.7946 29.2814 31.0351 27.696 30.2512 26.5116L33.776 22.9868C35.9419 25.4633 36.2896 29.0443 34.6401 31.8911L34.3644 32.3698L38.6711 34.8517L38.9469 34.3713C39.0164 34.2498 39.0859 34.123 39.1438 34.0123C39.2327 33.8518 39.3159 33.6913 39.3864 33.5389C39.4796 33.352 39.5612 33.1662 39.6406 32.9798C39.7063 32.8298 39.7664 32.6803 39.8148 32.5441C39.8579 32.4337 39.9005 32.3235 39.9325 32.2199C40.0731 31.8116 40.1822 31.4438 40.2632 31.1028C40.2969 30.9728 40.3273 30.8381 40.3562 30.707L40.3737 30.6286C40.4094 30.4633 40.4394 30.2944 40.4558 30.167C40.4873 30.0243 40.5062 29.8818 40.5242 29.7439C40.5468 29.5786 40.5646 29.4049 40.5794 29.2339C40.5942 29.063 40.6079 28.8857 40.6203 28.673C40.6325 28.4599 40.6373 28.2445 40.6373 28.0305C40.6373 27.8164 40.6319 27.6025 40.6209 27.4183ZM39.1934 25.2343C39.2238 25.3523 39.2485 25.4743 39.2773 25.5933L39.2927 25.6644C39.3232 25.8061 39.3479 25.948 39.3759 26.1295C39.4002 26.2396 39.4142 26.3501 39.4311 26.468C39.4526 26.6207 39.468 26.7791 39.4863 26.939C39.4952 27.0238 39.5017 27.11 39.5079 27.1927C39.5132 27.2632 39.5179 27.3311 39.5221 27.3906V27.4789H36.7583C36.6864 26.3051 36.3795 25.1576 35.8557 24.1047L38.2476 22.7259C38.2971 22.8196 38.3469 22.9106 38.3959 23.0162C38.4787 23.1815 38.5513 23.3469 38.6265 23.5262C38.6817 23.6525 38.7323 23.7783 38.7832 23.9178C38.8174 24.0067 38.8521 24.0941 38.8864 24.2013C39.0154 24.5751 39.1152 24.9112 39.1934 25.2343ZM29.0466 16.5038C29.2044 16.5197 29.3627 16.5354 29.5348 16.5591C29.6417 16.5733 29.7476 16.5865 29.8932 16.6169C30.0349 16.6366 30.1773 16.6627 30.3559 16.7007C30.4854 16.7292 30.6185 16.7591 30.7569 16.7944C31.0701 16.8706 31.4056 16.9697 31.7972 17.1049C31.8847 17.1318 31.9679 17.165 32.0783 17.2075C32.2046 17.2527 32.3304 17.3033 32.4645 17.3618C32.6355 17.4343 32.8019 17.5064 32.9823 17.5969C33.0739 17.6394 33.166 17.6901 33.2581 17.738L31.8793 20.131C30.8242 19.6145 29.6767 19.3137 28.504 19.2458V16.4629H28.5592C28.7245 16.4745 28.8866 16.485 29.0466 16.5038ZM23.8535 17.197C23.937 17.165 24.0191 17.1318 24.1228 17.1C24.4993 16.9697 24.8348 16.8706 25.1574 16.7922C25.2864 16.7591 25.4195 16.7292 25.5853 16.6929C25.7276 16.6627 25.87 16.6377 26.0501 16.6097C26.1573 16.5865 26.2637 16.5733 26.39 16.5544C26.5421 16.5334 26.7005 16.5181 26.8588 16.5022C27.0172 16.4861 27.1831 16.4756 27.3126 16.4664H27.4009V19.2487C26.2289 19.3155 25.082 19.6156 24.0272 20.131L22.6484 17.7386C22.7424 17.689 22.8331 17.6394 22.9392 17.5896C23.1046 17.5064 23.2699 17.4343 23.4499 17.3591C23.5745 17.3007 23.7003 17.25 23.8535 17.1943V17.197ZM16.4764 26.4632C16.4907 26.3527 16.5047 26.2424 16.5359 26.0897C16.5564 25.948 16.5818 25.8061 16.6111 25.6687L16.6275 25.5933C16.6542 25.4743 16.6827 25.3523 16.7137 25.226C16.7896 24.9112 16.8895 24.5751 17.0237 24.1868C17.0528 24.0937 17.0874 24.0061 17.1268 23.9041C17.1726 23.7778 17.2226 23.652 17.2805 23.5179C17.3535 23.3469 17.4263 23.181 17.5162 23C17.5584 22.9085 17.6094 22.8158 17.6573 22.7243L20.0491 24.103C19.5254 25.1566 19.2184 26.3046 19.1465 27.4789H16.3843V27.4237C16.3949 27.2584 16.4054 27.0963 16.4212 26.9369C16.4374 26.7774 16.4544 26.6207 16.4764 26.4632ZM17.6573 33.3355C17.6077 33.2419 17.558 33.1508 17.5089 33.0452C17.4263 32.8799 17.3535 32.7145 17.2784 32.5352C17.2232 32.4089 17.1726 32.2832 17.1217 32.1437C17.0874 32.0548 17.0528 31.9672 17.0185 31.8601C16.8895 31.4858 16.7896 31.1497 16.7115 30.8266C16.6811 30.7086 16.6564 30.5866 16.6275 30.4676L16.6122 30.3965C16.5818 30.2549 16.557 30.1129 16.529 29.9314C16.5047 29.8213 16.4907 29.7108 16.4737 29.5929C16.4522 29.4402 16.4369 29.2818 16.4185 29.1219C16.4096 29.0371 16.4032 28.9509 16.397 28.8682C16.3916 28.7977 16.387 28.7298 16.3827 28.6703V28.5847H19.1576C19.2246 29.7577 19.5265 30.9052 20.0454 31.9594L17.6573 33.3355ZM20.6023 23.15L18.2083 21.7712C18.2551 21.6985 18.2988 21.6245 18.3478 21.5507L18.3621 21.5313C18.4609 21.3875 18.5603 21.244 18.6771 21.0902C18.7687 20.9628 18.8656 20.8403 18.9324 20.7592C18.9828 20.7075 19.0293 20.6523 19.0719 20.5939C19.1508 20.4991 19.2375 20.404 19.314 20.3181C19.6057 20.0004 19.9151 19.6909 20.2428 19.3899C20.3332 19.3104 20.4232 19.2305 20.4886 19.1747L20.5803 19.1036C20.6012 19.0867 20.6211 19.068 20.64 19.0484C20.7617 18.9463 20.8837 18.8499 21.0222 18.75C21.1753 18.6342 21.3289 18.5295 21.4783 18.4253C21.5473 18.3784 21.6248 18.3409 21.6948 18.2957L23.0736 20.6839C22.095 21.3344 21.2551 22.1727 20.6023 23.15ZM32.8329 20.6803L34.2117 18.2863C34.2822 18.3316 34.3544 18.3741 34.4238 18.4215C34.576 18.5263 34.729 18.6315 34.8922 18.7557C35.019 18.8461 35.1405 18.9426 35.228 19.0137C35.2568 19.0414 35.287 19.0689 35.3158 19.0915C35.3443 19.1141 35.3709 19.1351 35.3901 19.1494C35.48 19.225 35.57 19.3051 35.6688 19.3915C35.693 19.4141 35.7162 19.4378 35.741 19.4605L33.7864 21.415C33.4857 21.1486 33.1671 20.9033 32.8329 20.6803ZM29.607 28.0305C29.607 28.9442 28.8662 29.685 27.9524 29.685C27.0387 29.685 26.2979 28.9442 26.2979 28.0305C26.2979 27.1167 27.0387 26.3759 27.9524 26.3759C28.1981 26.377 28.4404 26.4335 28.6612 26.5412L28.2344 26.9684C28.1426 26.9422 28.0478 26.9285 27.9524 26.9274C27.3433 26.9274 26.8494 27.4213 26.8494 28.0305C26.8494 28.6396 27.3433 29.1335 27.9524 29.1335C28.5616 29.1335 29.0555 28.6396 29.0555 28.0305C29.0541 27.9351 29.0404 27.8403 29.014 27.7485L29.4411 27.3217C29.5491 27.5425 29.6059 27.7846 29.607 28.0305ZM34.5706 22.1949L36.5252 20.2403C36.5456 20.2629 36.5677 20.2845 36.5882 20.3065C36.6724 20.4013 36.7568 20.4961 36.8182 20.5686C36.8551 20.6208 36.8957 20.6703 36.9399 20.7167C37.0414 20.8387 37.1378 20.9601 37.2377 21.0985L37.245 21.1091C37.3552 21.2556 37.4577 21.4023 37.5636 21.5563C37.6112 21.6258 37.6481 21.7023 37.6934 21.7734L35.3052 23.1522C35.0826 22.8166 34.8372 22.4967 34.5706 22.1949ZM39.4311 29.5977C39.4169 29.7082 39.4031 29.8186 39.3716 29.9712C39.3512 30.1129 39.3259 30.2549 39.2965 30.3922L39.2801 30.4676C39.2537 30.5866 39.2249 30.7086 39.1939 30.8349C39.1179 31.1497 39.018 31.4858 38.8839 31.8741C38.8549 31.9672 38.8201 32.0548 38.7808 32.1568C38.735 32.2831 38.6849 32.4089 38.627 32.543C38.5543 32.7141 38.4813 32.8799 38.3917 33.0609C38.3491 33.153 38.2982 33.2445 38.2503 33.3366L35.8594 31.9579C36.3776 30.903 36.6784 29.755 36.7446 28.582H39.5205V28.6372C39.51 28.8025 39.4995 28.9647 39.4837 29.124C39.4675 29.2835 39.4505 29.4402 39.4284 29.5977H39.4311Z" fill="black"/>
<path d="M31.7533 35.4567H28.2644L30.1189 32.239H25.9247L24.0723 37.5328H27.0503L25.7302 42.4209L31.7533 35.4567Z" fill="black"/>
</svg>
