<svg width="28" height="28" viewBox="0 0 28 28" fill="none" xmlns="http://www.w3.org/2000/svg">
<path fill-rule="evenodd" clip-rule="evenodd" d="M1.14385 0.0276125C0.588693 0.106176 0.105278 0.592051 0.0219428 1.15529C0.00313369 1.28245 -0.0033402 5.40588 0.00158852 14.116L0.00886197 26.8903L0.0709909 27.0624C0.24291 27.5388 0.629828 27.8849 1.08482 27.9693C1.35091 28.0186 26.7788 28.0047 26.9692 27.9551C27.4565 27.8281 27.8411 27.4378 27.955 26.9544C28.0072 26.7329 28.018 1.32758 27.966 1.08333C27.849 0.534267 27.3689 0.0918167 26.8156 0.0231368C26.5444 -0.0105105 1.38227 -0.00611476 1.14385 0.0276125ZM26.8154 0.903908C26.9078 0.93878 27.0289 1.05086 27.08 1.14871C27.1132 1.21219 27.1183 2.94017 27.118 14.0124L27.1176 26.8028L27.0607 26.895C27.0294 26.9456 26.9551 27.0193 26.8957 27.0586L26.7877 27.13H14.0111H1.23438L1.11636 27.0634C1.03731 27.0188 0.97793 26.9581 0.936529 26.8794L0.874719 26.762V14.0044C0.874719 3.25674 0.880474 1.23332 0.911245 1.1611C0.95286 1.06343 1.03825 0.977889 1.15446 0.917468C1.2542 0.865571 26.6784 0.852145 26.8154 0.903908ZM2.28796 14.0095L2.28791 25.7048H13.9964H25.7048V14.0095V2.31416H13.9964H2.28804L2.28796 14.0095ZM13.5583 4.05247C13.5595 4.53968 13.5593 6.6646 13.5579 8.77455C13.5564 10.8845 13.5555 12.7697 13.5557 12.9638L13.5562 13.3168H8.36106H3.16591V8.24174V3.16667H8.36106H13.5562L13.5583 4.05247ZM24.8257 8.24174V13.3168H19.6305H14.4354V8.24174V3.16667H19.6305H24.8257V8.24174ZM10.4258 4.21472C10.3183 4.26387 7.55645 6.86843 7.51475 6.95997C7.36449 7.28973 7.66837 7.65567 8.01498 7.56232C8.14734 7.5267 10.8624 4.99409 10.9674 4.8083C11.1622 4.46367 10.7851 4.05037 10.4258 4.21472ZM6.93879 4.40387C6.88188 4.42462 6.78602 4.48744 6.72578 4.54341C6.56439 4.69342 6.16887 5.0661 5.89603 5.32524C5.66981 5.54012 4.57446 6.56971 4.20899 6.91103C3.94902 7.15383 3.88977 7.36382 4.02511 7.56266C4.22071 7.85006 4.48215 7.84508 4.7958 7.54796C5.16532 7.19792 6.75504 5.70122 7.06573 5.41083C7.25798 5.23117 7.43627 5.04554 7.4619 4.99833C7.63928 4.67171 7.29064 4.27551 6.93879 4.40387ZM13.5612 17.7858C13.5658 19.7749 13.5657 22.1783 13.5611 23.1269L13.5527 24.8515L8.3593 24.8519L3.16591 24.8522V19.5108V14.1693H8.35935H13.5528L13.5612 17.7858ZM24.8257 19.5108V24.8523H19.6305H14.4354V19.5108V14.1693H19.6305H24.8257V19.5108Z" fill="black"/>
</svg>
