<svg width="1034" height="73" viewBox="0 0 1034 73" fill="none" xmlns="http://www.w3.org/2000/svg">
<path d="M68.1562 70.7812V71.4375H40.3125C34.9688 71.4375 30.2812 70.8594 26.25 69.7031C22.25 68.5469 18.1562 66.3594 13.9688 63.1406C9.8125 59.8906 6.4375 55.8594 3.84375 51.0469C1.28125 46.2344 0 41.3125 0 36.2812C0 30.7812 1.60938 25.2969 4.82812 19.8281C8.07812 14.3594 12.6875 9.92188 18.6562 6.51562C24.625 3.07812 31.3906 1.35938 38.9531 1.35938C45.7344 1.35938 52.9062 2.85938 60.4688 5.85938L63.3281 13.8281H62.6719C60.2656 10.7656 56.9688 8.23438 52.7812 6.23438C48.625 4.20312 43.9844 3.1875 38.8594 3.1875C29.9531 3.1875 22.6562 6.54688 16.9688 13.2656C11.2812 19.9531 8.4375 28.2656 8.4375 38.2031C8.4375 42.3281 8.90625 46.0156 9.84375 49.2656C10.7812 52.4844 12.5312 55.6719 15.0938 58.8281C17.6875 61.9531 20.4531 64.2656 23.3906 65.7656C26.3594 67.2344 29.6719 68.2656 33.3281 68.8594C36.9844 69.4219 39.8906 69.6719 42.0469 69.6094L45.75 69.5156C49.9375 69.3594 52.5469 68.9688 53.5781 68.3438C54.6406 67.7188 55.1719 66.125 55.1719 63.5625V53.1094C55.1719 51.0781 54.75 49.7188 53.9062 49.0312C53.0625 48.3125 51.8594 48 50.2969 48.0938V47.4375H68.1562V48.0938C66.1562 48.0938 64.8125 48.4844 64.125 49.2656C63.4688 50.0469 63.1406 51.5469 63.1406 53.7656V64.6406C63.1406 66.8281 63.4219 68.4062 63.9844 69.375C64.5781 70.3125 65.6406 70.7812 67.1719 70.7812H68.1562Z" fill="#333333"/>
<path d="M73.5 3.1875V2.39062H116.906V11.9062H116.203C115.266 8.375 114.469 6.29688 113.812 5.67188C113.188 5.04688 111.625 4.73438 109.125 4.73438H86.3438V35.7188H107.484C109.578 35.7188 110.906 35.5312 111.469 35.1562C112.031 34.75 112.328 34.1719 112.359 33.4219H113.062V39.9375H112.359C112.203 39.0312 111.828 38.4219 111.234 38.1094C110.672 37.7969 109.609 37.6406 108.047 37.6406H86.3438V58.9688C86.3438 62.1875 86.6406 64.5156 87.2344 65.9531C87.8281 67.3594 88.7656 68.25 90.0469 68.625C91.3594 68.9688 93.3281 69.1406 95.9531 69.1406H108.141C112.016 69.1406 114.484 69.0156 115.547 68.7656C116.641 68.4844 117.562 67.9531 118.312 67.1719C119.062 66.3594 119.641 64.6094 120.047 61.9219H120.703V71.4375H73.5V70.7812C75.0938 70.6875 76.2969 70.3906 77.1094 69.8906C77.9531 69.3594 78.375 68.0156 78.375 65.8594V10.0781C78.375 7.54688 78.1562 5.76562 77.7188 4.73438C77.2812 3.70312 75.875 3.1875 73.5 3.1875Z" fill="#333333"/>
<path d="M179.859 0L176.578 8.34375H175.922C176.047 7.84375 176.109 7.17188 176.109 6.32812C176.109 5.60938 175.844 5.15625 175.312 4.96875C174.812 4.75 174 4.64062 172.875 4.64062H154.828V63.75C154.828 66.1875 155.016 67.8594 155.391 68.7656C155.797 69.6406 156.328 70.2031 156.984 70.4531C157.672 70.6719 158.766 70.7812 160.266 70.7812V71.4375H141.562V70.7812C143.906 70.625 145.375 70.1719 145.969 69.4219C146.562 68.6719 146.859 67.1094 146.859 64.7344V4.64062H129.562C127.812 4.64062 126.672 4.75 126.141 4.96875C125.609 5.15625 125.344 5.65625 125.344 6.46875C125.344 6.875 125.469 7.5 125.719 8.34375H125.062L121.781 0H122.438C123 1.125 123.547 1.8125 124.078 2.0625C124.641 2.28125 125.828 2.39062 127.641 2.39062H173.531C175.344 2.39062 176.641 2.28125 177.422 2.0625C178.234 1.8125 178.828 1.125 179.203 0H179.859Z" fill="#333333"/>
<path d="M247.875 39.6562H227.719L217.266 65.7656C216.547 67.6406 216.188 68.7969 216.188 69.2344C216.188 70.2656 216.953 70.7812 218.484 70.7812V71.4375H208.219V70.7812C209.594 70.7812 210.75 70.4531 211.688 69.7969C212.625 69.1094 213.656 67.3594 214.781 64.5469L239.812 1.35938H240.984L265.641 62.3906C265.641 62.7031 266.266 64.1875 267.516 66.8438C268.797 69.4688 270.734 70.7812 273.328 70.7812V71.4375H257.203V70.7812C258.672 70.7812 259.406 70.2031 259.406 69.0469C259.406 68.2656 259.047 67.0156 258.328 65.2969C258.203 65.1719 258.094 64.9688 258 64.6875C257.938 64.375 257.891 64.2188 257.859 64.2188L247.875 39.6562ZM228.375 37.7344H247.031L237.703 14.2031L228.375 37.7344Z" fill="#333333"/>
<path d="M364.969 5.85938L367.547 13.1719H366.891C360.203 6.51562 352.328 3.1875 343.266 3.1875C333.859 3.1875 326.25 5.98438 320.438 11.5781C314.656 17.1719 311.766 23.9375 311.766 31.875C311.766 36.7812 313.047 42.4219 315.609 48.7969C318.203 55.1719 322.281 60.4219 327.844 64.5469C333.406 68.6406 340.141 70.6875 348.047 70.6875C353.234 70.6875 358.312 69.8594 363.281 68.2031C368.281 66.5156 372 64.2656 374.438 61.4531L375.047 61.6406L370.219 69.0469C362.406 70.7344 357.328 71.7344 354.984 72.0469C352.672 72.3594 349.562 72.5156 345.656 72.5156C331.188 72.5156 320.828 69.1719 314.578 62.4844C308.359 55.7656 305.25 47.7344 305.25 38.3906C305.25 32.0781 306.844 26.0156 310.031 20.2031C313.25 14.3594 317.875 9.76562 323.906 6.42188C329.938 3.04688 336.828 1.35938 344.578 1.35938C348.453 1.35938 351.797 1.71875 354.609 2.4375C357.453 3.125 359.812 3.84375 361.688 4.59375L364.781 5.76562C364.875 5.79688 364.938 5.82812 364.969 5.85938Z" fill="#333333"/>
<path d="M416.391 1.35938C426.078 1.35938 434 4.3125 440.156 10.2188C446.312 16.0938 449.391 23.4375 449.391 32.25C449.391 43.5938 445.828 53.1406 438.703 60.8906C431.578 68.6406 422.125 72.5156 410.344 72.5156C400.781 72.5156 392.953 69.3906 386.859 63.1406C380.766 56.8906 377.719 49.3906 377.719 40.6406C377.719 34.7344 379.188 28.6719 382.125 22.4531C385.062 16.2344 389.484 11.1719 395.391 7.26562C401.297 3.32812 408.297 1.35938 416.391 1.35938ZM416.109 68.8594C420.859 68.8594 425.547 67.5938 430.172 65.0625C434.797 62.5 438.438 58.9844 441.094 54.5156C443.75 50.0469 445.078 45.4531 445.078 40.7344C445.078 34.0469 443.281 27.9688 439.688 22.5C436.125 17.0312 431.484 12.75 425.766 9.65625C420.078 6.5625 414.812 5.01562 409.969 5.01562C403.125 5.01562 396.906 7.59375 391.312 12.75C385.75 17.9062 382.969 24.3125 382.969 31.9688C382.969 41.75 386.375 50.3438 393.188 57.75C400 65.1562 407.641 68.8594 416.109 68.8594Z" fill="#333333"/>
<path d="M513 2.39062H526.359V3.09375C524.328 3.15625 522.922 3.59375 522.141 4.40625C521.359 5.1875 520.969 6.85938 520.969 9.42188V72.2812L465.891 13.6406V64.7344C465.891 66.3594 466.016 67.5625 466.266 68.3438C466.516 69.125 466.875 69.6562 467.344 69.9375C467.812 70.2188 468.984 70.5 470.859 70.7812V71.4375H457.594V70.7812C459.969 70.7812 461.438 70.3594 462 69.5156C462.594 68.6719 462.891 66.6562 462.891 63.4688V16.7344C462.891 12.6406 462.312 9.29688 461.156 6.70312C460.031 4.10938 457.406 2.90625 453.281 3.09375V2.39062H466.266L518.016 57.5156V8.76562C518.016 6.14062 517.547 4.54688 516.609 3.98438C515.672 3.39062 514.469 3.09375 513 3.09375V2.39062Z" fill="#333333"/>
<path d="M566.438 3.28125L569.719 11.9062L569.156 12C569.156 11.9688 568.281 11.0469 566.531 9.23438C564.812 7.42188 562.828 6.03125 560.578 5.0625C558.359 4.0625 555.844 3.5625 553.031 3.5625C548.312 3.5625 544.562 4.92188 541.781 7.64062C539.031 10.3281 537.656 13.5781 537.656 17.3906C537.656 19.9219 538.297 22.1406 539.578 24.0469C540.891 25.9219 543.609 27.6719 547.734 29.2969C554.828 31.6719 559.672 33.4688 562.266 34.6875C564.891 35.875 567.406 37.9062 569.812 40.7812C572.25 43.6562 573.469 47.3438 573.469 51.8438C573.469 53.7188 573.25 55.5156 572.812 57.2344C572.375 58.9219 571.672 60.5625 570.703 62.1562C569.734 63.7188 568.562 65.1562 567.188 66.4688C565.844 67.75 564.469 68.7344 563.062 69.4219C561.656 70.0781 559.438 70.5781 556.406 70.9219C553.375 71.2656 551.375 71.4375 550.406 71.4375H531.984V51.375H532.688C532.75 58.0312 534.312 62.6719 537.375 65.2969C540.438 67.9219 545.203 69.2344 551.672 69.2344C557.547 69.2344 562 67.8438 565.031 65.0625C568.094 62.2812 569.625 58.9375 569.625 55.0312C569.625 52.6562 569.094 50.6406 568.031 48.9844C566.969 47.2969 565.484 45.8281 563.578 44.5781C561.672 43.2969 558.062 41.75 552.75 39.9375C547.469 38.0938 543.75 36.4844 541.594 35.1094C539.469 33.7031 537.688 31.6094 536.25 28.8281C534.812 26.0156 534.094 23.1562 534.094 20.25C534.094 14.9062 535.922 10.4219 539.578 6.79688C543.266 3.17188 548.094 1.35938 554.062 1.35938C556.375 1.35938 558.875 1.625 561.562 2.15625C564.25 2.6875 565.75 3.03125 566.062 3.1875C566.188 3.25 566.312 3.28125 566.438 3.28125Z" fill="#333333"/>
<path d="M643.688 71.4375H630.656V60.7969C624 68.2031 616.062 71.9062 606.844 71.9062C600 71.9062 594.562 69.9844 590.531 66.1406C586.531 62.2969 584.531 56.9844 584.531 50.2031V8.85938C584.531 6.35938 584.234 4.78125 583.641 4.125C583.047 3.4375 581.656 3.09375 579.469 3.09375V2.39062H597.797V3.09375C595.859 3.09375 594.484 3.40625 593.672 4.03125C592.891 4.625 592.5 6.0625 592.5 8.34375V46.2656C592.5 54.2031 594.359 59.875 598.078 63.2812C601.797 66.6562 606.031 68.3438 610.781 68.3438C618.25 68.3438 624.875 64.9844 630.656 58.2656V11.5312C630.656 7.4375 630.297 5.01562 629.578 4.26562C628.859 3.48438 627.734 3.09375 626.203 3.09375H625.547V2.39062H643.688V3.09375C641.438 3.21875 640.016 3.59375 639.422 4.21875C638.859 4.84375 638.578 6.03125 638.578 7.78125V64.0312C638.578 66.25 638.688 67.7031 638.906 68.3906C639.125 69.0781 639.562 69.6562 640.219 70.125C640.906 70.5625 642.062 70.7812 643.688 70.7812V71.4375Z" fill="#333333"/>
<path d="M648.797 71.4375V70.7812C650.953 70.7812 652.344 70.375 652.969 69.5625C653.625 68.75 653.953 67.3594 653.953 65.3906V8.85938C653.953 6.85938 653.703 5.42188 653.203 4.54688C652.703 3.64062 651.203 3.15625 648.703 3.09375V2.39062H667.219V3.09375C665.5 3.09375 664.297 3.3125 663.609 3.75C662.922 4.1875 662.469 4.70312 662.25 5.29688C662.031 5.89062 661.922 7.23438 661.922 9.32812V57.7969C661.922 61.9531 662.922 64.8906 664.922 66.6094C666.922 68.2969 670.344 69.1406 675.188 69.1406H683.625C687.688 69.1406 690.656 68.1406 692.531 66.1406C694.438 64.1406 695.5 60.375 695.719 54.8438H696.375V71.4375H648.797Z" fill="#333333"/>
<path d="M749.297 0L746.016 8.34375H745.359C745.484 7.84375 745.547 7.17188 745.547 6.32812C745.547 5.60938 745.281 5.15625 744.75 4.96875C744.25 4.75 743.438 4.64062 742.312 4.64062H724.266V63.75C724.266 66.1875 724.453 67.8594 724.828 68.7656C725.234 69.6406 725.766 70.2031 726.422 70.4531C727.109 70.6719 728.203 70.7812 729.703 70.7812V71.4375H711V70.7812C713.344 70.625 714.812 70.1719 715.406 69.4219C716 68.6719 716.297 67.1094 716.297 64.7344V4.64062H699C697.25 4.64062 696.109 4.75 695.578 4.96875C695.047 5.15625 694.781 5.65625 694.781 6.46875C694.781 6.875 694.906 7.5 695.156 8.34375H694.5L691.219 0H691.875C692.438 1.125 692.984 1.8125 693.516 2.0625C694.078 2.28125 695.266 2.39062 697.078 2.39062H742.969C744.781 2.39062 746.078 2.28125 746.859 2.0625C747.672 1.8125 748.266 1.125 748.641 0H749.297Z" fill="#333333"/>
<path d="M781.5 39.6562H761.344L750.891 65.7656C750.172 67.6406 749.812 68.7969 749.812 69.2344C749.812 70.2656 750.578 70.7812 752.109 70.7812V71.4375H741.844V70.7812C743.219 70.7812 744.375 70.4531 745.312 69.7969C746.25 69.1094 747.281 67.3594 748.406 64.5469L773.438 1.35938H774.609L799.266 62.3906C799.266 62.7031 799.891 64.1875 801.141 66.8438C802.422 69.4688 804.359 70.7812 806.953 70.7812V71.4375H790.828V70.7812C792.297 70.7812 793.031 70.2031 793.031 69.0469C793.031 68.2656 792.672 67.0156 791.953 65.2969C791.828 65.1719 791.719 64.9688 791.625 64.6875C791.562 64.375 791.516 64.2188 791.484 64.2188L781.5 39.6562ZM762 37.7344H780.656L771.328 14.2031L762 37.7344Z" fill="#333333"/>
<path d="M857.109 0L853.828 8.34375H853.172C853.297 7.84375 853.359 7.17188 853.359 6.32812C853.359 5.60938 853.094 5.15625 852.562 4.96875C852.062 4.75 851.25 4.64062 850.125 4.64062H832.078V63.75C832.078 66.1875 832.266 67.8594 832.641 68.7656C833.047 69.6406 833.578 70.2031 834.234 70.4531C834.922 70.6719 836.016 70.7812 837.516 70.7812V71.4375H818.812V70.7812C821.156 70.625 822.625 70.1719 823.219 69.4219C823.812 68.6719 824.109 67.1094 824.109 64.7344V4.64062H806.812C805.062 4.64062 803.922 4.75 803.391 4.96875C802.859 5.15625 802.594 5.65625 802.594 6.46875C802.594 6.875 802.719 7.5 802.969 8.34375H802.312L799.031 0H799.688C800.25 1.125 800.797 1.8125 801.328 2.0625C801.891 2.28125 803.078 2.39062 804.891 2.39062H850.781C852.594 2.39062 853.891 2.28125 854.672 2.0625C855.484 1.8125 856.078 1.125 856.453 0H857.109Z" fill="#333333"/>
<path d="M878.766 2.39062V3.09375C877.859 3 876.844 3.14062 875.719 3.51562C874.625 3.89062 873.969 4.4375 873.75 5.15625C873.562 5.875 873.469 7.57812 873.469 10.2656V63.2812C873.469 66.1562 873.578 67.9219 873.797 68.5781C874.047 69.2031 874.5 69.7344 875.156 70.1719C875.844 70.5781 877.047 70.7812 878.766 70.7812V71.4375H860.344V70.7812C862.656 70.7812 864.094 70.3438 864.656 69.4688C865.219 68.5625 865.5 66.5312 865.5 63.375V10.875C865.5 7.59375 865.188 5.45312 864.562 4.45312C863.938 3.42188 862.531 2.96875 860.344 3.09375V2.39062H878.766Z" fill="#333333"/>
<path d="M923.859 1.35938C933.547 1.35938 941.469 4.3125 947.625 10.2188C953.781 16.0938 956.859 23.4375 956.859 32.25C956.859 43.5938 953.297 53.1406 946.172 60.8906C939.047 68.6406 929.594 72.5156 917.812 72.5156C908.25 72.5156 900.422 69.3906 894.328 63.1406C888.234 56.8906 885.188 49.3906 885.188 40.6406C885.188 34.7344 886.656 28.6719 889.594 22.4531C892.531 16.2344 896.953 11.1719 902.859 7.26562C908.766 3.32812 915.766 1.35938 923.859 1.35938ZM923.578 68.8594C928.328 68.8594 933.016 67.5938 937.641 65.0625C942.266 62.5 945.906 58.9844 948.562 54.5156C951.219 50.0469 952.547 45.4531 952.547 40.7344C952.547 34.0469 950.75 27.9688 947.156 22.5C943.594 17.0312 938.953 12.75 933.234 9.65625C927.547 6.5625 922.281 5.01562 917.438 5.01562C910.594 5.01562 904.375 7.59375 898.781 12.75C893.219 17.9062 890.438 24.3125 890.438 31.9688C890.438 41.75 893.844 50.3438 900.656 57.75C907.469 65.1562 915.109 68.8594 923.578 68.8594Z" fill="#333333"/>
<path d="M1020.47 2.39062H1033.83V3.09375C1031.8 3.15625 1030.39 3.59375 1029.61 4.40625C1028.83 5.1875 1028.44 6.85938 1028.44 9.42188V72.2812L973.359 13.6406V64.7344C973.359 66.3594 973.484 67.5625 973.734 68.3438C973.984 69.125 974.344 69.6562 974.812 69.9375C975.281 70.2188 976.453 70.5 978.328 70.7812V71.4375H965.062V70.7812C967.438 70.7812 968.906 70.3594 969.469 69.5156C970.062 68.6719 970.359 66.6562 970.359 63.4688V16.7344C970.359 12.6406 969.781 9.29688 968.625 6.70312C967.5 4.10938 964.875 2.90625 960.75 3.09375V2.39062H973.734L1025.48 57.5156V8.76562C1025.48 6.14062 1025.02 4.54688 1024.08 3.98438C1023.14 3.39062 1021.94 3.09375 1020.47 3.09375V2.39062Z" fill="#333333"/>
</svg>
