<svg width="1715" height="284" fill="none" xmlns="http://www.w3.org/2000/svg"><path d="M33.105 7.177h55.41v2.111c-7.108 0-11.55 1.455-13.326 4.363-1.684 2.909-2.525 7.6-2.525 14.073v176.339c0 16.795-.562 29.32-1.684 37.576-1.122 8.257-3.647 15.481-7.575 21.673-3.928 6.286-9.118 11.306-15.57 15.059C41.381 282.124 33.852 284 25.25 284c-8.23 0-16.646-1.454-25.25-4.363l.28-2.392c2.526.844 6.266 1.266 11.223 1.266 12.157 0 21.415-4.456 27.775-13.369 6.359-8.913 9.538-24.16 9.538-45.739V28.569c0-8.538-1.075-13.886-3.226-16.044-2.057-2.158-6.219-3.237-12.485-3.237v-2.11ZM315.96 214.478h-38.997v-31.947c-19.919 22.236-43.673 33.354-71.261 33.354-20.48 0-36.752-5.77-48.816-17.31-11.97-11.54-17.956-27.49-17.956-47.85V26.599c0-7.506-.888-12.244-2.665-14.215-1.777-2.064-5.938-3.096-12.484-3.096v-2.11h54.848v2.11c-5.798 0-9.913.939-12.344 2.815-2.338 1.783-3.507 6.098-3.507 12.947v113.854c0 23.831 5.564 40.859 16.693 51.086 11.128 10.133 23.8 15.199 38.015 15.199 22.35 0 42.176-10.086 59.477-30.257V34.62c0-12.29-1.075-19.561-3.226-21.813-2.151-2.346-5.518-3.519-10.1-3.519h-1.964v-2.11h54.287v2.11c-6.733.376-10.988 1.502-12.765 3.378-1.683 1.877-2.525 5.442-2.525 10.696v168.88c0 6.661.327 11.024.982 13.088s1.964 3.8 3.928 5.207c2.057 1.314 5.517 1.97 10.38 1.97v1.971ZM452.366 9.851l9.819 25.895-1.683.282c0-.094-2.619-2.862-7.856-8.303-5.143-5.442-11.082-9.617-17.815-12.526-6.64-3.002-14.168-4.503-22.585-4.503-14.121 0-25.343 4.081-33.666 12.243-8.23 8.07-12.344 17.827-12.344 29.273 0 7.6 1.917 14.261 5.751 19.984 3.928 5.63 12.064 10.884 24.408 15.762 21.229 7.13 35.724 12.526 43.486 16.185 7.856 3.565 15.384 9.663 22.585 18.295 7.294 8.632 10.941 19.703 10.941 33.213 0 5.629-.654 11.024-1.964 16.184-1.309 5.067-3.413 9.993-6.312 14.778-2.899 4.691-6.406 9.006-10.521 12.947-4.021 3.847-8.136 6.802-12.344 8.866-4.209 1.97-10.848 3.472-19.92 4.504-9.071 1.032-15.056 1.548-17.955 1.548h-55.129v-60.234h2.104c.187 19.984 4.863 33.917 14.028 41.798s23.426 11.821 42.784 11.821c17.582 0 30.908-4.175 39.979-12.525 9.165-8.35 13.747-18.389 13.747-30.117 0-7.13-1.589-13.182-4.769-18.155-3.18-5.066-7.622-9.476-13.326-13.229-5.705-3.846-16.506-8.49-32.404-13.932-15.805-5.536-26.933-10.368-33.386-14.496-6.359-4.222-11.69-10.508-15.992-18.858-4.302-8.444-6.453-17.029-6.453-25.754 0-16.044 5.471-29.507 16.413-40.39C383.022 9.522 397.471 4.08 415.332 4.08c6.921 0 14.402.798 22.445 2.393 8.042 1.595 12.531 2.627 13.466 3.096.374.188.749.281 1.123.281ZM668.028 0l-9.82 25.05h-1.964c.374-1.5.562-3.518.562-6.051 0-2.158-.795-3.518-2.385-4.081-1.497-.657-3.928-.985-7.295-.985H593.12v177.464c0 7.319.561 12.338 1.683 15.059 1.216 2.627 2.806 4.316 4.769 5.066 2.058.657 5.331.985 9.82.985v1.971h-55.971v-1.971c7.014-.469 11.41-1.829 13.186-4.081 1.777-2.252 2.666-6.943 2.666-14.073V13.933H517.51c-5.237 0-8.65.328-10.24.985-1.59.563-2.385 2.064-2.385 4.503 0 1.22.374 3.096 1.123 5.63h-1.964L494.224 0h1.964c1.684 3.378 3.32 5.442 4.91 6.192 1.683.657 5.237.985 10.661.985H649.09c5.424 0 9.305-.328 11.643-.985 2.432-.75 4.209-2.814 5.331-6.192h1.964Zm223.657 217.715h-3.226L831.366 59.671l-55.97 158.044h-3.227L704.977 32.65c-2.712-7.506-5.611-13.276-8.698-17.31-3.086-4.034-7.574-6.052-13.466-6.052v-2.11h48.816v2.11c-4.769 0-7.154 1.736-7.154 5.207 0 2.065.748 5.208 2.245 9.43l54.708 150.725 45.029-127.364-4.349-12.103c-3.834-10.602-7.528-17.544-11.082-20.828-3.46-3.378-7.388-5.067-11.783-5.067v-2.11h48.255v2.11c-4.676 0-7.014 2.018-7.014 6.052 0 1.22.982 4.457 2.946 9.71l54.568 150.163 54.568-152.836c.093-.376.187-.61.28-.704l2.105-7.177c0-3.472-2.432-5.208-7.295-5.208v-2.11h30.16v2.11c-8.23.094-14.729 6.802-19.499 20.125l-66.632 188.302ZM1110.85 4.081c29 0 52.7 8.866 71.12 26.599 18.43 17.639 27.64 39.687 27.64 66.145 0 34.057-10.66 62.72-31.98 85.988-21.33 23.268-49.61 34.902-84.87 34.902-28.62 0-52.04-9.383-70.28-28.147-18.24-18.765-27.354-41.282-27.354-67.552 0-17.733 4.395-35.934 13.184-54.605 8.79-18.67 22.03-33.87 39.7-45.597 17.68-11.822 38.62-17.733 62.84-17.733Zm-.84 202.656c14.22 0 28.25-3.799 42.09-11.399 13.84-7.693 24.73-18.248 32.68-31.665 7.95-13.417 11.92-27.209 11.92-41.376 0-20.078-5.37-38.326-16.13-54.745-10.66-16.419-24.55-29.273-41.66-38.56-17.02-9.29-32.78-13.934-47.27-13.934-20.48 0-39.09 7.74-55.83 23.221-16.65 15.481-24.97 34.715-24.97 57.701 0 29.367 10.19 55.168 30.58 77.404 20.38 22.235 43.25 33.353 68.59 33.353ZM1358.92 4.081c28.99 0 52.7 8.866 71.12 26.599 18.42 17.639 27.64 39.687 27.64 66.145 0 34.057-10.67 62.72-31.99 85.988s-49.61 34.902-84.87 34.902c-28.61 0-52.04-9.383-70.27-28.147-18.24-18.765-27.36-41.282-27.36-67.552 0-17.733 4.4-35.934 13.19-54.605 8.79-18.67 22.02-33.87 39.7-45.597 17.67-11.822 38.62-17.733 62.84-17.733Zm-.84 202.656c14.21 0 28.24-3.799 42.08-11.399 13.84-7.693 24.74-18.248 32.69-31.665 7.95-13.417 11.92-27.209 11.92-41.376 0-20.078-5.38-38.326-16.13-54.745-10.66-16.419-24.55-29.273-41.66-38.56-17.02-9.29-32.78-13.934-47.28-13.934-20.48 0-39.09 7.74-55.83 23.221-16.64 15.481-24.97 34.715-24.97 57.701 0 29.367 10.2 55.168 30.58 77.404 20.39 22.235 43.26 33.353 68.6 33.353ZM1492.66 9.288v-2.11h94.83c24.13 0 43.16 1.923 57.09 5.77 14.03 3.752 26.23 9.71 36.61 17.873 10.38 8.162 18.61 18.623 24.69 31.383 6.08 12.666 9.12 26.833 9.12 42.502 0 15.105-3.18 29.976-9.54 44.612-6.26 14.543-14.82 27.115-25.67 37.717-10.85 10.508-22.3 17.732-34.37 21.673-11.97 3.846-30.53 5.77-55.69 5.77h-97.07v-1.971h2.53c5.05 0 8.37-2.017 9.96-6.051 1.59-4.128 2.38-11.54 2.38-22.236V33.213c0-11.259-.98-18.06-2.95-20.406-1.87-2.346-5.84-3.519-11.92-3.519Zm70.42 2.252h-31.7v160.858c0 10.133 1.68 17.686 5.05 22.659 3.46 4.878 9.3 8.444 17.53 10.695 8.23 2.158 19.31 3.237 33.25 3.237 38.71 0 65.88-9.945 81.5-29.835 15.71-19.985 23.57-41.751 23.57-65.301 0-27.677-10.76-51.649-32.27-71.914-21.41-20.266-53.72-30.399-96.93-30.399Z" fill="#E4E4E4" fill-opacity=".9"/></svg>