<svg width="840" height="74" viewBox="0 0 840 74" fill="none" xmlns="http://www.w3.org/2000/svg">
<path d="M66.8906 2.95312H77.7656V3.65625C74.1094 3.84375 72.2812 5.76562 72.2812 9.42188C72.2812 10.2031 72.375 11.2812 72.5625 12.6562L79.7812 64.9688C80.2188 67.5938 80.7031 69.2812 81.2344 70.0312C81.7969 70.75 82.9375 71.1875 84.6562 71.3438V72H69.1406V71.3438C71.1719 71.4062 72.1875 70.4062 72.1875 68.3438C72.1875 67.875 72.0938 66.9531 71.9062 65.5781L64.875 14.8594L40.125 72H39.6562L14.7656 14.9531L7.78125 65.9531C7.65625 66.7344 7.59375 67.625 7.59375 68.625C7.59375 70.4375 8.64062 71.3438 10.7344 71.3438V72H0.1875V71.3438C1.78125 71.3438 2.79688 71.1406 3.23438 70.7344C3.70312 70.3281 4.0625 69.7031 4.3125 68.8594C4.5625 67.9844 4.75 67.0156 4.875 65.9531L12.75 10.1719C11.4688 7.07812 10.1875 5.21875 8.90625 4.59375C7.625 3.96875 6.39062 3.65625 5.20312 3.65625V2.95312H18.2344L42.5156 59.4375L66.8906 2.95312Z" fill="white"/>
<path d="M126.797 1.92188C136.484 1.92188 144.406 4.875 150.562 10.7812C156.719 16.6562 159.797 24 159.797 32.8125C159.797 44.1562 156.234 53.7031 149.109 61.4531C141.984 69.2031 132.531 73.0781 120.75 73.0781C111.188 73.0781 103.359 69.9531 97.2656 63.7031C91.1719 57.4531 88.125 49.9531 88.125 41.2031C88.125 35.2969 89.5938 29.2344 92.5312 23.0156C95.4688 16.7969 99.8906 11.7344 105.797 7.82812C111.703 3.89062 118.703 1.92188 126.797 1.92188ZM126.516 69.4219C131.266 69.4219 135.953 68.1562 140.578 65.625C145.203 63.0625 148.844 59.5469 151.5 55.0781C154.156 50.6094 155.484 46.0156 155.484 41.2969C155.484 34.6094 153.688 28.5312 150.094 23.0625C146.531 17.5938 141.891 13.3125 136.172 10.2188C130.484 7.125 125.219 5.57812 120.375 5.57812C113.531 5.57812 107.312 8.15625 101.719 13.3125C96.1562 18.4688 93.375 24.875 93.375 32.5312C93.375 42.3125 96.7812 50.9062 103.594 58.3125C110.406 65.7188 118.047 69.4219 126.516 69.4219Z" fill="white"/>
<path d="M166.781 3.65625V2.95312H186.375C191.344 2.95312 194.938 3.0625 197.156 3.28125C199.375 3.5 201.641 4.23438 203.953 5.48438C206.297 6.70312 208.062 8.375 209.25 10.5C210.438 12.5938 211.031 15.1719 211.031 18.2344C211.031 21.7344 209.969 25.0781 207.844 28.2656C205.75 31.4219 202.781 34.0938 198.938 36.2812L203.812 43.7812C204.875 45.6562 207.688 49.7656 212.25 56.1094C216.844 62.4531 220.391 66.3281 222.891 67.7344C225.391 69.1094 227.812 69.7969 230.156 69.7969C232.469 69.7969 235.125 68.9062 238.125 67.125L238.406 68.0625C234.656 71.125 229.781 72.6562 223.781 72.6562C219.781 72.6562 216.344 71.4844 213.469 69.1406C210.594 66.7656 205.594 60.2656 198.469 49.6406C198.406 49.5781 198.375 49.5156 198.375 49.4531L191.438 38.7656L185.297 38.9531H179.719V65.3906C179.719 67.5156 180 69.0469 180.562 69.9844C181.125 70.8906 182.484 71.3438 184.641 71.3438V72H166.781V71.3438C169 71.25 170.375 70.7812 170.906 69.9375C171.469 69.0938 171.75 67.375 171.75 64.7812V9.89062C171.75 8.10938 171.516 6.64062 171.047 5.48438C170.578 4.29688 169.156 3.6875 166.781 3.65625ZM179.719 4.78125V37.1719H186.938C192.625 37.1719 196.844 35.8281 199.594 33.1406C202.344 30.4531 203.719 26.9219 203.719 22.5469C203.719 18.2969 202.359 14.2812 199.641 10.5C196.953 6.6875 192.203 4.78125 185.391 4.78125H179.719Z" fill="white"/>
<path d="M242.812 3.75V2.95312H286.219V12.4688H285.516C284.578 8.9375 283.781 6.85938 283.125 6.23438C282.5 5.60938 280.938 5.29688 278.438 5.29688H255.656V36.2812H276.797C278.891 36.2812 280.219 36.0938 280.781 35.7188C281.344 35.3125 281.641 34.7344 281.672 33.9844H282.375V40.5H281.672C281.516 39.5938 281.141 38.9844 280.547 38.6719C279.984 38.3594 278.922 38.2031 277.359 38.2031H255.656V59.5312C255.656 62.75 255.953 65.0781 256.547 66.5156C257.141 67.9219 258.078 68.8125 259.359 69.1875C260.672 69.5312 262.641 69.7031 265.266 69.7031H277.453C281.328 69.7031 283.797 69.5781 284.859 69.3281C285.953 69.0469 286.875 68.5156 287.625 67.7344C288.375 66.9219 288.953 65.1719 289.359 62.4844H290.016V72H242.812V71.3438C244.406 71.25 245.609 70.9531 246.422 70.4531C247.266 69.9219 247.688 68.5781 247.688 66.4219V10.6406C247.688 8.10938 247.469 6.32812 247.031 5.29688C246.594 4.26562 245.188 3.75 242.812 3.75Z" fill="white"/>
<path d="M322.875 3.65625V2.95312H342.562C349.562 2.95312 354.641 3.73438 357.797 5.29688C360.984 6.85938 363.297 8.8125 364.734 11.1562C366.203 13.4688 366.938 16.5312 366.938 20.3438C366.938 26.1875 364.922 30.5781 360.891 33.5156C356.859 36.4531 351.391 37.8594 344.484 37.7344V37.0781C348.859 37.0781 352.406 35.7344 355.125 33.0469C357.875 30.3594 359.25 26.8281 359.25 22.4531C359.25 19.0469 358.578 16.0312 357.234 13.4062C355.922 10.75 354.062 8.73438 351.656 7.35938C349.25 5.98438 345.578 5.29688 340.641 5.29688H335.719V64.4062C335.719 67.75 336.094 69.75 336.844 70.4062C337.594 71.0312 339.016 71.3438 341.109 71.3438V72H322.875V71.3438C326.125 71.3438 327.75 69.8594 327.75 66.8906V9.70312C327.75 7.26562 327.438 5.65625 326.812 4.875C326.188 4.0625 324.875 3.65625 322.875 3.65625Z" fill="white"/>
<path d="M373.781 3.65625V2.95312H393.375C398.344 2.95312 401.938 3.0625 404.156 3.28125C406.375 3.5 408.641 4.23438 410.953 5.48438C413.297 6.70312 415.062 8.375 416.25 10.5C417.438 12.5938 418.031 15.1719 418.031 18.2344C418.031 21.7344 416.969 25.0781 414.844 28.2656C412.75 31.4219 409.781 34.0938 405.938 36.2812L410.812 43.7812C411.875 45.6562 414.688 49.7656 419.25 56.1094C423.844 62.4531 427.391 66.3281 429.891 67.7344C432.391 69.1094 434.812 69.7969 437.156 69.7969C439.469 69.7969 442.125 68.9062 445.125 67.125L445.406 68.0625C441.656 71.125 436.781 72.6562 430.781 72.6562C426.781 72.6562 423.344 71.4844 420.469 69.1406C417.594 66.7656 412.594 60.2656 405.469 49.6406C405.406 49.5781 405.375 49.5156 405.375 49.4531L398.438 38.7656L392.297 38.9531H386.719V65.3906C386.719 67.5156 387 69.0469 387.562 69.9844C388.125 70.8906 389.484 71.3438 391.641 71.3438V72H373.781V71.3438C376 71.25 377.375 70.7812 377.906 69.9375C378.469 69.0938 378.75 67.375 378.75 64.7812V9.89062C378.75 8.10938 378.516 6.64062 378.047 5.48438C377.578 4.29688 376.156 3.6875 373.781 3.65625ZM386.719 4.78125V37.1719H393.938C399.625 37.1719 403.844 35.8281 406.594 33.1406C409.344 30.4531 410.719 26.9219 410.719 22.5469C410.719 18.2969 409.359 14.2812 406.641 10.5C403.953 6.6875 399.203 4.78125 392.391 4.78125H386.719Z" fill="white"/>
<path d="M474.609 1.92188C484.297 1.92188 492.219 4.875 498.375 10.7812C504.531 16.6562 507.609 24 507.609 32.8125C507.609 44.1562 504.047 53.7031 496.922 61.4531C489.797 69.2031 480.344 73.0781 468.562 73.0781C459 73.0781 451.172 69.9531 445.078 63.7031C438.984 57.4531 435.938 49.9531 435.938 41.2031C435.938 35.2969 437.406 29.2344 440.344 23.0156C443.281 16.7969 447.703 11.7344 453.609 7.82812C459.516 3.89062 466.516 1.92188 474.609 1.92188ZM474.328 69.4219C479.078 69.4219 483.766 68.1562 488.391 65.625C493.016 63.0625 496.656 59.5469 499.312 55.0781C501.969 50.6094 503.297 46.0156 503.297 41.2969C503.297 34.6094 501.5 28.5312 497.906 23.0625C494.344 17.5938 489.703 13.3125 483.984 10.2188C478.297 7.125 473.031 5.57812 468.188 5.57812C461.344 5.57812 455.125 8.15625 449.531 13.3125C443.969 18.4688 441.188 24.875 441.188 32.5312C441.188 42.3125 444.594 50.9062 451.406 58.3125C458.219 65.7188 465.859 69.4219 474.328 69.4219Z" fill="white"/>
<path d="M514.5 3.65625V2.95312H546.188C554.25 2.95312 560.609 3.59375 565.266 4.875C569.953 6.125 574.031 8.10938 577.5 10.8281C580.969 13.5469 583.719 17.0312 585.75 21.2812C587.781 25.5 588.797 30.2188 588.797 35.4375C588.797 40.4688 587.734 45.4219 585.609 50.2969C583.516 55.1406 580.656 59.3281 577.031 62.8594C573.406 66.3594 569.578 68.7656 565.547 70.0781C561.547 71.3594 555.344 72 546.938 72H514.5V71.3438H515.344C517.031 71.3438 518.141 70.6719 518.672 69.3281C519.203 67.9531 519.469 65.4844 519.469 61.9219V11.625C519.469 7.875 519.141 5.60938 518.484 4.82812C517.859 4.04688 516.531 3.65625 514.5 3.65625ZM538.031 4.40625H527.438V57.9844C527.438 61.3594 528 63.875 529.125 65.5312C530.281 67.1562 532.234 68.3438 534.984 69.0938C537.734 69.8125 541.438 70.1719 546.094 70.1719C559.031 70.1719 568.109 66.8594 573.328 60.2344C578.578 53.5781 581.203 46.3281 581.203 38.4844C581.203 29.2656 577.609 21.2812 570.422 14.5312C563.266 7.78125 552.469 4.40625 538.031 4.40625Z" fill="white"/>
<path d="M660 72H646.969V61.3594C640.312 68.7656 632.375 72.4688 623.156 72.4688C616.312 72.4688 610.875 70.5469 606.844 66.7031C602.844 62.8594 600.844 57.5469 600.844 50.7656V9.42188C600.844 6.92188 600.547 5.34375 599.953 4.6875C599.359 4 597.969 3.65625 595.781 3.65625V2.95312H614.109V3.65625C612.172 3.65625 610.797 3.96875 609.984 4.59375C609.203 5.1875 608.812 6.625 608.812 8.90625V46.8281C608.812 54.7656 610.672 60.4375 614.391 63.8438C618.109 67.2188 622.344 68.9062 627.094 68.9062C634.562 68.9062 641.188 65.5469 646.969 58.8281V12.0938C646.969 8 646.609 5.57812 645.891 4.82812C645.172 4.04688 644.047 3.65625 642.516 3.65625H641.859V2.95312H660V3.65625C657.75 3.78125 656.328 4.15625 655.734 4.78125C655.172 5.40625 654.891 6.59375 654.891 8.34375V64.5938C654.891 66.8125 655 68.2656 655.219 68.9531C655.438 69.6406 655.875 70.2188 656.531 70.6875C657.219 71.125 658.375 71.3438 660 71.3438V72Z" fill="white"/>
<path d="M727.125 6.42188L729.703 13.7344H729.047C722.359 7.07812 714.484 3.75 705.422 3.75C696.016 3.75 688.406 6.54688 682.594 12.1406C676.812 17.7344 673.922 24.5 673.922 32.4375C673.922 37.3438 675.203 42.9844 677.766 49.3594C680.359 55.7344 684.438 60.9844 690 65.1094C695.562 69.2031 702.297 71.25 710.203 71.25C715.391 71.25 720.469 70.4219 725.438 68.7656C730.438 67.0781 734.156 64.8281 736.594 62.0156L737.203 62.2031L732.375 69.6094C724.562 71.2969 719.484 72.2969 717.141 72.6094C714.828 72.9219 711.719 73.0781 707.812 73.0781C693.344 73.0781 682.984 69.7344 676.734 63.0469C670.516 56.3281 667.406 48.2969 667.406 38.9531C667.406 32.6406 669 26.5781 672.188 20.7656C675.406 14.9219 680.031 10.3281 686.062 6.98438C692.094 3.60938 698.984 1.92188 706.734 1.92188C710.609 1.92188 713.953 2.28125 716.766 3C719.609 3.6875 721.969 4.40625 723.844 5.15625L726.938 6.32812C727.031 6.35938 727.094 6.39062 727.125 6.42188Z" fill="white"/>
<path d="M796.078 0.5625L792.797 8.90625H792.141C792.266 8.40625 792.328 7.73438 792.328 6.89062C792.328 6.17188 792.062 5.71875 791.531 5.53125C791.031 5.3125 790.219 5.20312 789.094 5.20312H771.047V64.3125C771.047 66.75 771.234 68.4219 771.609 69.3281C772.016 70.2031 772.547 70.7656 773.203 71.0156C773.891 71.2344 774.984 71.3438 776.484 71.3438V72H757.781V71.3438C760.125 71.1875 761.594 70.7344 762.188 69.9844C762.781 69.2344 763.078 67.6719 763.078 65.2969V5.20312H745.781C744.031 5.20312 742.891 5.3125 742.359 5.53125C741.828 5.71875 741.562 6.21875 741.562 7.03125C741.562 7.4375 741.688 8.0625 741.938 8.90625H741.281L738 0.5625H738.656C739.219 1.6875 739.766 2.375 740.297 2.625C740.859 2.84375 742.047 2.95312 743.859 2.95312H789.75C791.562 2.95312 792.859 2.84375 793.641 2.625C794.453 2.375 795.047 1.6875 795.422 0.5625H796.078Z" fill="white"/>
<path d="M832.875 3.84375L836.156 12.4688L835.594 12.5625C835.594 12.5312 834.719 11.6094 832.969 9.79688C831.25 7.98438 829.266 6.59375 827.016 5.625C824.797 4.625 822.281 4.125 819.469 4.125C814.75 4.125 811 5.48438 808.219 8.20312C805.469 10.8906 804.094 14.1406 804.094 17.9531C804.094 20.4844 804.734 22.7031 806.016 24.6094C807.328 26.4844 810.047 28.2344 814.172 29.8594C821.266 32.2344 826.109 34.0312 828.703 35.25C831.328 36.4375 833.844 38.4688 836.25 41.3438C838.688 44.2188 839.906 47.9062 839.906 52.4062C839.906 54.2812 839.688 56.0781 839.25 57.7969C838.812 59.4844 838.109 61.125 837.141 62.7188C836.172 64.2812 835 65.7188 833.625 67.0312C832.281 68.3125 830.906 69.2969 829.5 69.9844C828.094 70.6406 825.875 71.1406 822.844 71.4844C819.812 71.8281 817.812 72 816.844 72H798.422V51.9375H799.125C799.188 58.5938 800.75 63.2344 803.812 65.8594C806.875 68.4844 811.641 69.7969 818.109 69.7969C823.984 69.7969 828.438 68.4062 831.469 65.625C834.531 62.8438 836.062 59.5 836.062 55.5938C836.062 53.2188 835.531 51.2031 834.469 49.5469C833.406 47.8594 831.922 46.3906 830.016 45.1406C828.109 43.8594 824.5 42.3125 819.188 40.5C813.906 38.6562 810.188 37.0469 808.031 35.6719C805.906 34.2656 804.125 32.1719 802.688 29.3906C801.25 26.5781 800.531 23.7188 800.531 20.8125C800.531 15.4688 802.359 10.9844 806.016 7.35938C809.703 3.73438 814.531 1.92188 820.5 1.92188C822.812 1.92188 825.312 2.1875 828 2.71875C830.688 3.25 832.188 3.59375 832.5 3.75C832.625 3.8125 832.75 3.84375 832.875 3.84375Z" fill="white"/>
</svg>
