<svg width="55" height="55" viewBox="0 0 55 55" fill="none" xmlns="http://www.w3.org/2000/svg">
<path d="M50.0194 37.4296H4.81738V41.8827H50.0194V37.4296Z" stroke="black" stroke-width="0.0284274" stroke-miterlimit="10" stroke-linecap="round" stroke-linejoin="round"/>
<path d="M42.1532 18.9726C41.6132 18.4295 40.8346 18.1931 40.0838 18.3441L38.9745 18.5653C38.7159 18.6176 38.4478 18.536 38.2621 18.3486L37.755 17.8401C37.0572 17.1788 36.0212 17.0089 35.1487 17.4126L33.9261 16.187L34.3919 15.725C34.741 15.3727 34.8989 14.8721 34.8149 14.3833C34.7313 13.899 34.4175 13.4844 33.9742 13.2725C32.5113 12.5737 30.7561 12.8754 29.6105 14.0225L26.3441 17.2925L26.3389 17.3008L25.2244 18.4169C24.3536 19.2913 24.3536 20.7263 25.2244 21.6007L25.2828 21.66C26.1556 22.5325 27.5917 22.5325 28.4645 21.66L29.5834 20.5387L30.6853 19.4354L31.9003 20.6527C31.4749 21.5259 31.6491 22.5791 32.3331 23.2688L32.9714 23.9078C33.1192 24.0574 33.2028 24.2592 33.2039 24.4696V27.5559C33.2021 28.1646 33.4436 28.7496 33.8744 29.1797L39.4141 34.7299C40.3035 35.6178 41.7655 35.6178 42.6549 34.7299L48.6454 28.7297C49.5332 27.8393 49.5332 26.377 48.6454 25.4866L42.1532 18.9726ZM27.4032 20.6002C27.1091 20.8819 26.639 20.8819 26.3449 20.6002L26.2864 20.5409C26.1447 20.4002 26.0649 20.2085 26.0649 20.0088C26.0649 19.809 26.1447 19.6174 26.2864 19.4766L26.8744 18.8879L27.9934 20.0092L27.4032 20.6002ZM29.0532 18.9449L27.9334 17.8198L30.671 15.077C31.3706 14.3808 32.4394 14.1999 33.3291 14.627C34.2189 15.0541 33.3419 14.6502 33.3291 14.6652L32.3361 15.6582L30.9785 17.0181L29.0532 18.9449ZM32.8641 19.4931L31.7473 18.3726L32.8723 17.2475L33.9914 18.3726L32.8641 19.4931ZM47.5848 27.6684L41.5937 33.6686C41.2823 33.9638 40.7881 33.9638 40.4769 33.6686L34.9371 28.1184C34.7877 27.969 34.7039 27.7658 34.7047 27.5544V24.4681C34.7059 23.8601 34.464 23.2763 34.0334 22.8472L33.3951 22.2075C33.0866 21.8989 33.0866 21.3911 33.3951 21.0824L33.9539 20.5229L37.254 23.823L36.8902 24.1883C36.6403 24.4393 36.4852 24.7695 36.4514 25.1221L36.3247 26.4796C36.2824 26.9301 36.4431 27.3767 36.7628 27.6969L39.9616 30.9018C40.2462 31.1883 40.634 31.3491 41.0379 31.348C41.4413 31.349 41.8286 31.1882 42.1127 30.9018L44.836 28.1732C45.4233 27.5816 45.4233 26.6129 44.836 26.0213L41.0229 22.2015C40.7393 21.9135 40.3516 21.7512 39.9473 21.7515C39.5435 21.7515 39.1559 21.9137 38.8726 22.2015L38.3145 22.761L35.0144 19.4572L35.5747 18.8954C35.8821 18.5915 36.384 18.5915 36.6915 18.8954L37.1985 19.4039C37.7372 19.9487 38.5156 20.1871 39.267 20.0376L40.3763 19.8172C40.6354 19.7645 40.9043 19.8461 41.0904 20.0339L47.5863 26.5419C47.8937 26.8501 47.8937 27.3564 47.5863 27.6647L47.5848 27.6684ZM39.3893 23.8478L39.3758 23.8351L39.9473 23.2643C39.9525 23.264 39.9575 23.2662 39.9609 23.2703L43.774 27.1224L41.0229 29.848L37.818 26.6229L37.9515 25.2526L38.3137 24.8903L38.3273 24.9031C38.4696 25.0652 38.6752 25.1584 38.891 25.1584C39.3025 25.1584 39.641 24.8198 39.641 24.4083C39.641 24.1942 39.5493 23.99 39.3893 23.8478Z" fill="black"/>
<path d="M9.56707 33.8981C9.74865 33.8979 9.92409 33.8318 10.0606 33.7121L12.6324 31.462C12.8179 31.3203 12.9269 31.0997 12.9269 30.8662C12.9269 30.4548 12.5883 30.1162 12.1769 30.1162C11.9775 30.1162 11.7861 30.1957 11.6454 30.337L9.07354 32.5871C8.91323 32.7294 8.82129 32.9337 8.82129 33.1481C8.82129 33.5579 9.15722 33.8958 9.56707 33.8981Z" fill="black"/>
<path d="M14.7093 29.398C14.8911 29.398 15.0668 29.332 15.2036 29.2121L18.3102 26.4933C18.4956 26.3514 18.6046 26.1309 18.6046 25.8974C18.6046 25.4859 18.2661 25.1473 17.8546 25.1473C17.6552 25.1473 17.4638 25.2269 17.3231 25.3682L14.2165 28.084C14.0541 28.2263 13.9609 28.4321 13.9609 28.6481C13.9609 29.0589 14.2984 29.3972 14.7093 29.398Z" fill="black"/>
<path d="M20.068 24.7104C20.2496 24.7102 20.4251 24.644 20.5616 24.5244L22.0616 23.2118C22.2471 23.07 22.3561 22.8495 22.3561 22.616C22.3561 22.2045 22.0175 21.866 21.6061 21.866C21.4067 21.866 21.2152 21.9455 21.0746 22.0868L19.5745 23.3994C19.4142 23.5416 19.3223 23.746 19.3223 23.9604C19.3223 24.3702 19.6582 24.7081 20.068 24.7104Z" fill="black"/>
<path d="M14.9929 33.2772L14.2428 34.1637C14.1283 34.2991 14.0654 34.4709 14.0654 34.6482C14.0654 35.0598 14.4042 35.3986 14.8159 35.3986C15.0366 35.3986 15.2464 35.3013 15.3888 35.1327L16.1388 34.2462C16.2534 34.1108 16.3163 33.939 16.3163 33.7616C16.3163 33.35 15.9776 33.0113 15.5659 33.0113C15.3452 33.0113 15.1354 33.1086 14.9929 33.2772Z" fill="black"/>
<path d="M19.4949 27.9588L17.2448 30.6183C17.1303 30.7538 17.0674 30.9255 17.0674 31.1029C17.0674 31.5145 17.4061 31.8532 17.8178 31.8532C18.0385 31.8532 18.2483 31.7559 18.3908 31.5873L20.6409 28.9278C20.7554 28.7923 20.8183 28.6206 20.8183 28.4432C20.8183 28.0316 20.4796 27.6929 20.0679 27.6929C19.8472 27.6929 19.6374 27.7902 19.4949 27.9588Z" fill="black"/>
<path d="M21.8316 26.3567C21.9671 26.4715 22.139 26.5345 22.3166 26.5345C22.5371 26.5345 22.7467 26.4373 22.8891 26.2689L23.6392 25.3824C23.7537 25.247 23.8166 25.0752 23.8166 24.8979C23.8166 24.4863 23.4778 24.1475 23.0661 24.1475C22.8454 24.1475 22.6356 24.2448 22.4932 24.4134L21.7432 25.2999C21.4776 25.6141 21.5175 26.091 21.8316 26.3567Z" fill="black"/>
<path d="M22.2019 33.4543C22.1047 33.4102 21.9992 33.3875 21.8926 33.3875C21.5982 33.3875 21.3298 33.5609 21.2089 33.8292L20.9771 34.34C20.933 34.4373 20.9102 34.5429 20.9102 34.6498C20.9102 35.0613 21.2488 35.4 21.6604 35.4C21.9543 35.4 22.2223 35.2272 22.3437 34.9595L22.5754 34.448C22.6198 34.3505 22.6427 34.2446 22.6427 34.1375C22.6427 33.8435 22.4698 33.5755 22.2019 33.4543Z" fill="black"/>
<path d="M22.4913 30.9852C22.4475 31.0823 22.4248 31.1876 22.4248 31.2942C22.4248 31.7057 22.7635 32.0444 23.175 32.0444C23.4692 32.0444 23.7375 31.8713 23.8586 31.6032L25.1449 28.7606C25.1888 28.6635 25.2116 28.5582 25.2116 28.4516C25.2116 28.04 24.8729 27.7013 24.4613 27.7013C24.167 27.7013 23.8989 27.8744 23.7777 28.1426L22.4913 30.9852Z" fill="black"/>
<path d="M25.4372 26.2922C25.5343 26.336 25.6395 26.3586 25.7459 26.3586C26.0402 26.3586 26.3084 26.1854 26.4296 25.9172L26.7513 25.2062C26.799 25.1056 26.8237 24.9959 26.8237 24.8846C26.8237 24.4731 26.4851 24.1346 26.0737 24.1346C25.7747 24.1346 25.503 24.3134 25.3848 24.5881L25.063 25.2992C25.0189 25.3964 24.9961 25.5019 24.9961 25.6087C24.9961 25.9029 25.1692 26.171 25.4372 26.2922Z" fill="black"/>
</svg>
