<svg width="38" height="33" viewBox="0 0 38 33" fill="none" xmlns="http://www.w3.org/2000/svg">
<path fill-rule="evenodd" clip-rule="evenodd" d="M13.0807 22.8133C13.0807 22.5464 12.8644 22.3284 12.5962 22.3284H0.484478C0.216248 22.3284 0 22.5464 0 22.8133V23.7831C0 24.0501 0.216248 24.2656 0.484478 24.2656H12.5962C12.8644 24.2656 13.0807 24.0501 13.0807 23.7831V22.8133Z" fill="black"/>
<path d="M20.3908 22.3284H16.9199V24.2656H20.3908V22.3284Z" fill="black"/>
<path fill-rule="evenodd" clip-rule="evenodd" d="M37.8265 24.1529L37.5063 23.8395H37.5149L37.8276 24.1529C37.9332 24.0623 37.9994 23.9301 37.9994 23.7831V22.8133C37.9994 22.5464 37.7827 22.3284 37.5149 22.3284H25.3155C25.0487 22.3284 24.832 22.5464 24.832 22.8133V23.7831C24.832 24.0501 25.0487 24.2656 25.3155 24.2656H37.5149C37.6333 24.2656 37.7422 24.2239 37.8265 24.1529ZM36.7625 23.0851L36.7518 23.0974L37.5063 23.8395H37.5149L36.7625 23.0851Z" fill="black"/>
<path d="M20.8853 22.8276C20.9013 22.7157 20.9508 22.6072 20.9358 22.5006C20.2204 17.4285 25.4051 17.9111 24.8255 22.8276H27.8953C28.1757 22.8276 28.4025 22.6004 28.4025 22.3203V18.2621L28.3424 17.2475C27.9832 13.8592 25.8515 10.8943 22.7423 9.4864C23.7317 8.47901 24.3444 7.10032 24.3444 5.58009C24.3444 2.50319 21.8412 0 18.7643 0C15.6875 0 13.1842 2.50319 13.1842 5.58009C13.1842 7.1008 13.7972 8.47991 14.7872 9.48741C13.7408 9.96281 12.7704 10.6279 11.9473 11.4463C10.3694 13.0287 9.40918 15.0597 9.18126 17.2476L9.12598 18.2621V22.3203C9.12598 22.6005 9.35289 22.8276 9.63324 22.8276H12.716C13.0617 17.6247 16.8919 17.8365 17.0548 22.8276H20.8853ZM14.1988 5.58009C14.1988 3.06276 16.2468 1.01458 18.7643 1.01458C21.2819 1.01458 23.3298 3.06276 23.3298 5.58009C23.3298 8.09743 21.2819 10.1456 18.7643 10.1456C16.2468 10.1456 14.1988 8.09737 14.1988 5.58009ZM20.9128 21.813H16.9791C16.907 17.9652 12.8604 17.316 12.7557 21.813H10.1406V18.2621C10.1406 15.9619 11.0372 13.7959 12.6641 12.1641C13.5211 11.3116 14.5601 10.6504 15.6741 10.2226C16.5596 10.8139 17.622 11.1601 18.7643 11.1601C19.9086 11.1601 20.9728 10.8129 21.8591 10.2198C25.1749 11.4938 27.3881 14.6905 27.3881 18.2621V21.813H24.8255C24.6123 18.1544 20.7613 18.4309 20.4778 21.813" fill="black"/>
<path fill-rule="evenodd" clip-rule="evenodd" d="M17.7561 21.3177C17.7561 19.7247 16.4611 18.4319 14.8682 18.4319C13.2753 18.4319 11.9824 19.7247 11.9824 21.3177V29.818C11.9824 31.413 13.2753 32.7058 14.8682 32.7058C16.4611 32.7058 17.7561 31.413 17.7561 29.818V21.3177ZM16.58 21.3177V29.818C16.58 30.7645 15.8127 31.5298 14.8682 31.5298C13.9237 31.5298 13.1565 30.7645 13.1565 29.818V21.3177C13.1565 20.3732 13.9237 19.6059 14.8682 19.6059C15.8127 19.6059 16.58 20.3732 16.58 21.3177Z" fill="black"/>
<path fill-rule="evenodd" clip-rule="evenodd" d="M25.5871 21.3177C25.5871 19.7247 24.2922 18.4319 22.6993 18.4319C21.1063 18.4319 19.8135 19.7247 19.8135 21.3177V29.818C19.8135 31.413 21.1063 32.7058 22.6993 32.7058C24.2922 32.7058 25.5871 31.413 25.5871 29.818V21.3177ZM24.4111 21.3177V29.818C24.4111 30.7645 23.6437 31.5298 22.6993 31.5298C21.7548 31.5298 20.9876 30.7645 20.9876 29.818V21.3177C20.9876 20.3732 21.7548 19.6059 22.6993 19.6059C23.6437 19.6059 24.4111 20.3732 24.4111 21.3177Z" fill="black"/>
</svg>
