<svg width="16" height="33" viewBox="0 0 16 33" fill="none" xmlns="http://www.w3.org/2000/svg">
<path d="M15.4999 12.0466C15.0796 11.6301 14.5376 11.092 13.9538 10.5121C12.654 9.22076 11.1479 7.72265 10.3203 6.8982L9.46739 6.04858V7.25243V32.5H6.57098V7.2164V6.01719L5.71907 6.86121L2.51245 10.0382L2.51118 10.0394L2.86436 10.3934L2.51115 10.0395L2.51105 10.0396L2.51066 10.0399L2.50912 10.0415L2.503 10.0476L2.47915 10.0714L2.38859 10.1617L2.06533 10.4842C1.79777 10.7511 1.44101 11.1068 1.08414 11.4625C0.884602 11.6613 0.685075 11.8601 0.501114 12.0432C0.500402 11.6306 0.49999 11.138 0.5 10.6106L0.50005 8.19843L8.00383 0.706605L15.4937 8.18711C15.4956 8.93497 15.4978 10.1169 15.499 11.1497C15.4994 11.4687 15.4997 11.7734 15.4999 12.0466Z" fill="#033DB1" stroke="white"/>
</svg>
