<svg width="117" height="114" viewBox="0 0 117 114" fill="none" xmlns="http://www.w3.org/2000/svg">
<path fill-rule="evenodd" clip-rule="evenodd" d="M52.3956 0.310017C51.9451 0.37559 50.4707 0.584313 49.1192 0.773566C45.4938 1.28192 45.6137 1.20662 45.3857 3.1157C43.5794 18.2417 44.8592 27.2359 51.6692 47.2847L55.1805 57.6225L55.3994 54.4263C55.52 52.6685 55.7857 45.9713 55.9898 39.5438C56.3673 27.6787 57.1159 9.9392 57.5071 3.59224L57.7221 0.102583L55.4685 0.146727C54.2287 0.171073 52.8461 0.244768 52.3956 0.310017ZM59.3747 4.02788C59.4871 6.24341 59.8131 13.6067 60.0984 20.3913C60.3842 27.1758 60.7216 34.6989 60.8487 37.1092L61.0797 41.4915L62.7668 38.6953C66.8813 31.8753 70.3615 17.9102 71.8153 2.38563C71.9057 1.42053 68.4979 0.624246 62.5813 0.228535L59.1696 0L59.3747 4.02788ZM39.708 2.99527C25.2462 7.89994 12.7814 18.5858 6.2236 31.7017L4.83734 34.4746L5.36288 41.2111C5.65186 44.9159 5.94117 47.9998 6.00572 48.0641C6.6787 48.7309 9.0328 39.3082 9.59405 33.7007L10.0167 29.4806L10.3188 31.753C11.1369 37.9006 10.4217 43.5113 7.95355 50.3118L6.44181 54.4763L6.51422 58.6964C6.55386 61.0174 6.68328 65.0943 6.80189 67.7562L7.01715 72.5956L8.8798 69.8662C9.90401 68.3648 11.9682 65.453 13.4668 63.3959C14.9651 61.3384 16.445 59.2933 16.7553 58.8512C18.3008 56.6487 15.3399 62.7554 12.4232 67.7857C8.09575 75.249 7.18097 77.8187 7.18097 82.5104V85.6424L8.79953 88.238C14.4943 97.3699 18.8296 99.8704 22.6912 96.2503C24.5358 94.5213 24.529 94.5707 24.9015 80.8062L25.2478 68.0045L23.1106 65.3264C18.4279 59.4589 17.7002 56.9256 17.3375 45.2247C17.0486 35.9039 16.546 31.0979 15.2039 24.8201C14.1693 19.9793 14.3167 19.9852 15.9667 24.8503C18.4499 32.1717 19.3552 36.8498 20.0983 46.1985C20.71 53.8952 22.1165 58.1721 24.8399 60.6139L25.5289 61.2316V59.4472C25.5289 56.9408 26.4204 37.6149 27.0013 27.5329C27.2687 22.8909 27.5872 17.3451 27.7087 15.2087C28.0374 9.45 28.3591 11.3409 28.9502 22.5013C29.7299 37.2273 29.8259 38.3755 30.1972 37.4244C33.2197 29.678 34.0824 24.7451 34.5941 12.2758L34.8343 6.43266L35.2668 10.0035C36.6334 21.2772 35.8582 29.6251 32.4939 39.8597C30.0448 47.311 30.1765 45.7161 30.7522 60.9687C30.9275 65.6107 31.1719 72.9832 31.2954 77.3519L31.5199 85.2953L33.4431 79.6242C38.4508 64.8589 39.7627 58.9729 39.5671 52.1485C39.4452 47.8891 39.6372 47.6333 40.2574 51.2301C41.4726 58.2776 40.5736 66.0042 36.8748 80.2998C35.2697 86.5042 32.7371 99.8396 32.7371 102.088C32.7371 107.241 36.099 110.564 43.7131 112.937C50.8193 115.152 53.9414 113.965 54.5521 108.819C55.0813 104.357 54.6029 103.046 46.2785 86.1549C40.5936 74.6193 40.6359 74.7592 43.931 78.4046C47.6543 82.5241 48.8115 83.9998 51.8153 88.4571L54.5888 92.5726L54.8178 84.6234L55.0469 76.6738L52.9208 69.9574C41.8334 34.9258 40.0625 23.1564 43.3874 6.59497C44.3277 1.91136 44.3434 1.72178 43.795 1.73704C43.5699 1.74321 41.7305 2.30935 39.708 2.99527ZM73.5593 3.42863C73.464 4.18824 73.3001 6.12427 73.195 7.73114C71.6813 30.9028 70.1476 37.005 63.1426 47.7301L61.1882 50.7221L61.3864 58.6048C61.7347 72.445 61.8631 74.0599 62.5282 72.9452C68.8786 62.3 69.9795 60.6067 69.5762 62.1049C69.373 62.8593 66.1084 72.0168 63.2006 79.9878L61.9467 83.4255L62.176 93.6218C62.4028 103.704 62.4149 103.839 63.2572 105.604C68.3092 116.193 83.6851 114.424 84.6903 103.138C85.0798 98.7612 83.1546 86.9035 80.7153 78.6604C77.5254 67.8789 77.0012 65.9354 76.4681 62.9164C75.7722 58.9736 75.7522 52.352 76.4288 49.7693L76.8963 47.9839L76.9324 51.5038C76.994 57.4884 78.2092 62.074 82.9131 74.0729L84.996 79.3863L85.3977 68.7167C85.6188 62.8486 85.9137 55.582 86.0529 52.5688C86.3373 46.4228 86.2459 45.8736 84.0209 40.3554C81.0407 32.9648 80.2262 27.505 80.8824 19.3207C81.5528 10.9624 81.7215 10.6105 82.003 16.9828C82.2969 23.6329 82.9544 28.798 83.8954 31.8464C84.6283 34.2207 86.4851 38.8261 86.6453 38.667C86.7 38.6128 87.0696 33.602 87.4661 27.5323C87.8625 21.4622 88.2884 16.3852 88.4123 16.2501C88.717 15.9174 90.1888 38.0658 90.9142 53.9017C91.0387 56.6211 91.2582 58.7739 91.402 58.686C93.957 57.1216 95.9038 52.1605 96.4897 45.722C97.2439 37.4289 98.424 32.4551 101.212 25.8189C102.7 22.2764 103.261 21.5479 102.244 24.4769C100.382 29.8432 99.2513 37.7782 99.2428 45.5473C99.233 54.0046 96.5853 60.6671 91.9577 63.8786C91.2595 64.3632 91.6681 90.7827 92.4105 93.167C94.1283 98.6817 100.161 98.5262 104.506 92.8551C110.715 84.7516 110.96 79.8245 105.617 70.4456C101.954 64.0143 98.9892 58.2094 99.3683 58.2094C99.4296 58.2094 100.189 59.2683 101.055 60.5629C101.921 61.8575 103.473 64.0169 104.504 65.3618C105.535 66.707 107.096 68.8982 107.974 70.2311L109.569 72.655L109.784 67.4611C110.297 55.0691 110.29 54.9655 108.651 50.4186C106.419 44.2245 105.978 41.9178 106.009 36.6222C106.047 30.3188 106.57 28.1348 106.904 32.8891C107.261 37.9723 109.866 48.7724 110.567 48.0771C110.624 48.0203 110.908 44.9419 111.198 41.2364L111.725 34.4986L110.205 31.5189C103.896 19.1441 92.6972 9.08902 79.5899 4.03112C73.6553 1.74093 73.77 1.7523 73.5593 3.42863ZM103.18 22.0144C103.18 22.1037 103.106 22.1767 103.016 22.1767C102.926 22.1767 102.852 22.1037 102.852 22.0144C102.852 21.9251 102.926 21.8521 103.016 21.8521C103.106 21.8521 103.18 21.9251 103.18 22.0144ZM1.63366 44.0645C0.923992 47.024 1.06816 49.4447 1.95443 49.4447C2.17657 49.4447 2.69784 41.324 2.48914 41.1172C2.42328 41.0517 2.0383 42.3781 1.63366 44.0645ZM114.162 43.6016C114.247 45.1192 114.317 47.1568 114.318 48.13C114.32 50.0274 114.656 50.0332 115.26 48.1462C115.563 47.1983 115.49 46.4991 114.815 43.9262L114.007 40.8423L114.162 43.6016ZM77.2964 47.6593C77.2964 47.7486 77.2227 47.8216 77.1326 47.8216C77.0425 47.8216 76.9687 47.7486 76.9687 47.6593C76.9687 47.57 77.0425 47.497 77.1326 47.497C77.2227 47.497 77.2964 47.57 77.2964 47.6593ZM0.191712 52.986C-0.311874 55.4813 0.258551 66.632 0.955773 67.9181C1.60516 69.1157 1.6874 54.8438 1.03965 53.3512L0.410906 51.9011L0.191712 52.986ZM115.467 53.5404C114.848 55.0356 114.828 55.5024 115.1 61.7802C115.409 68.905 115.672 69.3095 116.256 63.5598C116.995 56.287 116.569 50.8747 115.467 53.5404Z" fill="#603814"/>
</svg>
